<?xml version="1.0" encoding="utf-8"?>
<!-- Generator: Adobe Illustrator 16.0.0, SVG Export Plug-In . SVG Version: 6.00 Build 0)  -->
<!DOCTYPE svg PUBLIC "-//W3C//DTD SVG 1.1//EN" "http://www.w3.org/Graphics/SVG/1.1/DTD/svg11.dtd">
<svg version="1.1" xmlns="http://www.w3.org/2000/svg" xmlns:xlink="http://www.w3.org/1999/xlink" x="0px" y="0px" width="800px"
	 height="700px" viewBox="0 0 800 700" enable-background="new 0 0 800 700" xml:space="preserve">
<g id="Layer_2">
</g>
<g id="pbb" display="none">
	<rect x="-1.379" y="-4.039" display="inline" fill="#3B97D3" width="803.938" height="709.45"/>
	<g display="inline">
		<g>
			<g>
				<g>
					<polygon fill="#C4C4C4" points="578.951,311.577 578.951,304.331 458.934,203.34 458.927,203.322 458.927,203.322 
						458.568,203.024 458.549,203.037 458.512,203.024 457.36,204.053 300.667,304.331 300.667,307.936 286.506,320.374 
						286.506,500.983 286.506,513.39 300.667,513.39 420.728,513.39 578.951,513.39 593.118,513.39 593.118,500.983 
						593.118,324.357 					"/>
					<polygon fill="#CC2527" points="458.927,179.333 286.506,179.333 450.181,340.021 622.615,340.021 					"/>
					<polygon fill="#FFFFFF" points="406.525,311.577 406.525,304.331 286.506,203.34 286.506,203.322 286.493,203.322 
						286.141,203.024 286.115,203.037 286.098,203.024 284.914,204.053 166.438,304.331 166.438,307.936 152.278,320.374 
						152.278,481.799 152.278,513.39 166.438,513.39 286.506,513.39 406.525,513.39 420.697,513.39 420.697,500.983 
						420.697,324.357 					"/>
					<rect x="350.139" y="382.543" fill="#CC2527" width="31.998" height="100.427"/>
					<rect x="318.982" y="278.205" fill="#CC2527" width="23.153" height="72.588"/>
					<rect x="420.697" y="493.011" fill="#CC2527" width="172.421" height="20.379"/>
					<rect x="152.278" y="493.011" fill="#EF4645" width="268.419" height="20.379"/>
					<polygon fill="#EF4645" points="286.506,179.333 122.813,340.021 152.297,340.021 286.506,213.555 420.697,340.021 
						450.181,340.021 					"/>
					<g>
						<polygon fill="#C4C4C4" points="286.537,382.543 229.154,382.543 229.154,482.97 286.537,482.97 343.921,482.97 
							343.921,382.543 						"/>
						<polygon fill="#1D2E4F" points="286.531,390.628 237.232,390.628 237.232,474.886 286.531,474.886 335.843,474.886 
							335.843,390.628 						"/>
						<g>
							<polygon fill="#2E4476" points="335.843,474.886 335.843,444.782 305.733,474.886 							"/>
							<polygon fill="#2E4476" points="237.232,390.628 237.232,431.212 277.822,390.628 							"/>
							<polygon fill="#2E4476" points="335.843,394.207 255.171,474.886 283.552,474.886 335.843,422.597 							"/>
						</g>
						<rect x="197.149" y="382.543" fill="#EF4645" width="32.005" height="100.427"/>
						<rect x="343.821" y="382.543" fill="#EF4645" width="31.992" height="100.427"/>
						<rect x="200.085" y="392.171" fill="#CC2527" width="26.226" height="6.23"/>
						<rect x="346.764" y="392.171" fill="#CC2527" width="26.233" height="6.23"/>
						<rect x="200.085" y="410.858" fill="#CC2527" width="26.226" height="6.23"/>
						<rect x="346.764" y="410.858" fill="#CC2527" width="26.233" height="6.23"/>
						<rect x="200.085" y="429.539" fill="#CC2527" width="26.226" height="6.236"/>
						<rect x="346.764" y="429.539" fill="#CC2527" width="26.233" height="6.236"/>
						<rect x="200.085" y="448.228" fill="#CC2527" width="26.226" height="6.238"/>
						<rect x="346.764" y="448.228" fill="#CC2527" width="26.233" height="6.238"/>
						<rect x="200.085" y="466.915" fill="#CC2527" width="26.226" height="6.225"/>
						<rect x="346.764" y="466.915" fill="#CC2527" width="26.233" height="6.225"/>
					</g>
					<g>
						<g>
							<polygon fill="#C4C4C4" points="286.506,278.205 260.336,278.205 260.336,350.793 286.506,350.793 312.659,350.793 
								312.659,278.205 							"/>
							<polygon fill="#1D2E4F" points="286.493,284.044 266.163,284.044 266.163,344.964 286.493,344.964 306.812,344.964 
								306.812,284.044 							"/>
							<g>
								<g>
									<g>
										<polygon fill="#2E4476" points="286.493,284.044 280.38,284.044 266.163,298.234 266.163,311.157 293.295,284.044 
																					"/>
									</g>
									<g>
										<polygon fill="#2E4476" points="306.812,293.881 266.163,334.533 266.163,344.964 286.493,344.964 292.118,344.964 
											306.812,330.234 										"/>
									</g>
								</g>
							</g>
						</g>
						<rect x="237.183" y="278.205" fill="#EF4645" width="23.153" height="72.588"/>
						<rect x="312.659" y="278.205" fill="#EF4645" width="23.146" height="72.588"/>
						<rect x="239.318" y="285.153" fill="#CC2527" width="18.962" height="4.522"/>
						<rect x="314.801" y="285.153" fill="#CC2527" width="18.955" height="4.522"/>
						<rect x="239.318" y="298.663" fill="#CC2527" width="18.962" height="4.508"/>
						<rect x="314.801" y="298.663" fill="#CC2527" width="18.955" height="4.508"/>
						<rect x="239.318" y="312.178" fill="#CC2527" width="18.962" height="4.509"/>
						<rect x="314.801" y="312.178" fill="#CC2527" width="18.955" height="4.509"/>
						<rect x="239.318" y="325.681" fill="#CC2527" width="18.962" height="4.511"/>
						<rect x="314.801" y="325.681" fill="#CC2527" width="18.955" height="4.511"/>
						<rect x="239.318" y="339.191" fill="#CC2527" width="18.962" height="4.503"/>
						<rect x="314.801" y="339.191" fill="#CC2527" width="18.955" height="4.503"/>
					</g>
					<g>
						<rect x="552.082" y="389.735" fill="#CC2527" width="29.304" height="91.934"/>
						<g>
							<g>
								<rect x="479.486" y="389.735" fill="#FFFFFF" width="33.139" height="91.934"/>
								<rect x="512.625" y="389.735" fill="#FFFFFF" width="33.146" height="91.934"/>
							</g>
							<polygon fill="#1D2E4F" points="512.625,397.119 486.89,397.119 486.89,474.273 512.625,474.273 538.373,474.273 
								538.373,397.119 							"/>
							<g>
								<g>
									<g>
										<polygon fill="#2E4476" points="538.373,397.119 529.64,397.119 486.89,439.891 486.89,463.278 538.373,411.794 
																					"/>
									</g>
									<g>
										<polygon fill="#2E4476" points="538.373,429.812 493.912,474.273 512.234,474.273 538.373,448.153 										"/>
									</g>
								</g>
							</g>
						</g>
						<rect x="450.181" y="389.735" fill="#EF4645" width="29.306" height="91.934"/>
						<rect x="545.771" y="389.735" fill="#EF4645" width="29.297" height="91.934"/>
						<rect x="452.875" y="398.538" fill="#CC2527" width="24.022" height="5.709"/>
						<rect x="548.465" y="398.538" fill="#CC2527" width="24.015" height="5.709"/>
						<rect x="452.875" y="415.64" fill="#CC2527" width="24.022" height="5.711"/>
						<rect x="548.465" y="415.64" fill="#CC2527" width="24.015" height="5.711"/>
						<rect x="452.875" y="432.755" fill="#CC2527" width="24.022" height="5.703"/>
						<rect x="548.465" y="432.755" fill="#CC2527" width="24.015" height="5.703"/>
						<rect x="452.875" y="449.861" fill="#CC2527" width="24.022" height="5.706"/>
						<rect x="548.465" y="449.861" fill="#CC2527" width="24.015" height="5.706"/>
						<rect x="452.875" y="466.973" fill="#CC2527" width="24.022" height="5.698"/>
						<rect x="548.465" y="466.973" fill="#CC2527" width="24.015" height="5.698"/>
					</g>
					<polygon fill="#C4C4C4" points="445.015,166.827 427.027,166.827 427.027,203.352 445.015,203.352 463.003,203.352 
						463.003,166.827 					"/>
					<polygon fill="#CC2527" points="445.015,150.058 420.704,150.058 420.704,167.247 445.015,167.247 469.316,167.247 
						469.316,150.058 					"/>
					<polygon fill="#FFFFFF" points="416.763,166.827 398.776,166.827 398.776,203.352 416.763,203.352 434.763,203.352 
						434.763,166.827 					"/>
					<polygon fill="#EF4645" points="416.763,150.058 392.451,150.058 392.451,167.247 416.763,167.247 441.07,167.247 
						441.07,150.058 					"/>
				</g>
			</g>
			<g>
				<g>
					<g>
						<g>
							<path fill="#F49A1F" d="M505.874,176.271c-16.544,46.196,7.463,97.063,53.666,113.614l59.939-167.261
								C573.29,106.074,522.424,130.088,505.874,176.271z"/>
							<path fill="#F49A1F" d="M673.127,236.22c-3.121,8.751-7.488,16.693-12.816,23.723c-7.654,10.115-17.322,18.335-28.195,24.269
								c-16.815,9.192-36.537,12.915-56.242,9.854c-5.469-0.861-10.933-2.235-16.333-4.181l59.939-167.261
								c1.884,0.675,3.753,1.418,5.569,2.211C667.572,143.343,689.016,191.925,673.127,236.22z"/>
						</g>
						<path fill="#FFCB07" d="M603.246,116.813c-46.184-16.55-97.051,7.458-113.603,53.648
							c-16.558,46.184,7.472,97.056,53.655,113.602c46.184,16.569,97.068-7.477,113.605-53.655
							C673.462,184.213,649.441,133.365,603.246,116.813z"/>
						<g>
							<path fill="#F49A1F" d="M503.716,175.516c-13.768,38.416,6.215,80.722,44.638,94.48l49.855-139.114
								C559.799,117.099,517.479,137.101,503.716,175.516z"/>
							<path fill="#F4931F" d="M598.209,130.882l-49.855,139.114c38.41,13.775,80.715-6.2,94.491-44.629
								C656.601,186.958,636.627,144.645,598.209,130.882z"/>
						</g>
						<path fill="#FFCB07" d="M552.118,259.46c-32.538-11.651-49.515-47.633-37.858-80.172
							c11.664-32.55,47.614-49.534,80.166-37.875c32.537,11.681,49.521,47.632,37.865,80.17
							C620.626,254.126,584.67,271.124,552.118,259.46z M593.488,144.044c-31.118-11.15-65.471,5.086-76.608,36.174
							c-11.143,31.106,5.08,65.473,36.179,76.609c31.104,11.15,65.462-5.073,76.61-36.168
							C640.813,189.546,624.584,155.2,593.488,144.044z"/>
						<g>
							<path fill="#FFCB07" d="M554.367,172.704c5.432-14.823,16.324-16.266,27.842-12.494l3.229-8.906l9.879,3.599l-3.258,8.98
								c7.167,3.011,12.254,6.176,16.848,9.645l-4.817,13.224c-6.066-2.818-17.01-7.333-22.119-9.198
								c-5.99-2.26-9.118-2.836-11.194,2.869l-0.929,2.558c-1.628,4.478-0.421,6.942,5.067,8.938l8.318,3.035
								c15.381,5.581,14.018,19.331,10.982,27.656l-1.573,4.33c-6.417,17.599-18.358,17.815-28.642,14.067l-3.099,8.481
								l-9.867-3.593l3.129-8.61c-8.368-3.352-11.075-5.235-17.046-9.781l4.785-13.138c4.036,1.808,13.965,6.219,23.597,9.725
								c4.397,1.598,8.281,1.845,9.902-2.627l1.109-3.011c1.345-3.716,1.01-6.366-4.081-8.226l-8.041-2.911
								c-18.551-6.751-14.443-22.478-12.358-28.177L554.367,172.704z"/>
						</g>
					</g>
					<g opacity="0.3">
						<path fill="#FFCB07" d="M582.197,112.051l-82.864,39.128c-3.891,5.841-7.155,12.233-9.632,19.115l113.365-53.56
							C596.172,114.293,589.173,112.738,582.197,112.051z"/>
						<path fill="#FFCB07" d="M630.513,132.46l-146.108,69.009c0.218,16.483,5.004,32.464,13.622,46.197l159.53-75.365
							C652.396,156.952,643.117,143.078,630.513,132.46z"/>
					</g>
				</g>
			</g>
		</g>
		<g>
			<g>
				<polygon fill="#C4C4C4" points="568.121,481.781 562.873,484.932 468.311,328.976 473.53,325.911 				"/>
				<g>
					<polygon fill="#FFFFFF" points="562.873,484.932 480.555,534.843 385.999,378.883 468.311,328.976 					"/>
					<path fill="#26A687" d="M413.63,385.641l47.898-29.03l73.707,121.571l-47.892,29.037L413.63,385.641L413.63,385.641z
						 M395.159,381.142l87.62,144.521l70.893-42.981L466.06,338.162L395.159,381.142L395.159,381.142z"/>
					<path fill="#26A687" d="M468.205,501.628c13.304-8.063,30.619-3.844,38.676,9.42l-24.102,14.614L468.205,501.628z"/>
					<path fill="#26A687" d="M409.748,405.204c13.304-8.062,17.568-25.38,9.507-38.669l-24.096,14.606L409.748,405.204z"/>
					<path fill="#26A687" d="M539.104,458.652c-13.288,8.056-17.531,25.339-9.485,38.614l24.054-14.586L539.104,458.652z"/>
					<path fill="#26A687" d="M480.646,362.229c-13.29,8.055-30.594,3.801-38.643-9.486l24.056-14.581L480.646,362.229z"/>
					<path fill="#26A687" d="M494.2,463.297c-6.273,3.803-8.292,12.004-4.484,18.297c3.814,6.294,12.024,8.28,18.291,4.479
						c6.281-3.802,8.289-11.991,4.479-18.277C508.669,461.508,500.479,459.494,494.2,463.297z"/>
					<path fill="#26A687" d="M461.528,410.644c-11.739,7.106-15.483,22.385-8.363,34.116c7.109,11.726,22.394,15.489,34.132,8.373
						c11.727-7.113,15.476-22.41,8.359-34.144C488.543,407.265,473.259,403.528,461.528,410.644z"/>
					<path fill="#26A687" d="M444.402,381.164c-6.274,3.801-8.294,12.003-4.484,18.296c3.804,6.268,12.03,8.281,18.296,4.478
						c6.274-3.801,8.27-12.003,4.465-18.284C458.864,379.36,450.677,377.36,444.402,381.164z"/>
					<path fill="#8FD2C7" d="M473.386,444.76c-5.193,3.154-8.837,0.98-11.375-2.953l-3.106,1.892l-2.094-3.455l3.139-1.901
						c-1.401-2.671-2.185-4.843-2.739-6.963l4.67-2.836c1.117,2.332,3.292,6.334,4.37,8.122c1.279,2.113,2.061,3.047,4.088,1.814
						l0.875-0.529c1.563-0.946,1.814-1.994,0.656-3.908l-1.769-2.915c-3.267-5.392,0.461-9.182,3.364-10.944l1.518-0.914
						c6.182-3.742,9.786-0.915,11.971,2.695l3.007-1.821l2.095,3.465l-3.034,1.836c1.716,3.014,2.08,4.22,2.749,7.034l-4.599,2.789
						c-0.76-1.516-2.683-5.247-4.727-8.605c-0.931-1.536-2.038-2.557-3.614-1.602l-1.057,0.643
						c-1.313,0.787-1.843,1.676-0.763,3.464l1.7,2.802c3.949,6.499-1.086,10.217-3.086,11.428L473.386,444.76z"/>
				</g>
			</g>
			<g>
				<polygon fill="#C4C4C4" points="530.85,489.716 527.722,494.977 370.466,402.614 373.595,397.434 				"/>
				<g>
					<polygon fill="#FFFFFF" points="527.722,494.977 478.972,577.985 321.708,485.61 370.466,402.614 					"/>
					<path fill="#26A687" d="M349.244,478.44l28.367-48.289l122.585,72.007l-28.367,48.288L349.244,478.44L349.244,478.44z
						 M330.845,483.25l145.729,85.605l41.987-71.487l-145.727-85.6L330.845,483.25L330.845,483.25z"/>
					<path fill="#26A687" d="M452.333,554.62c7.884-13.417,25.127-17.928,38.508-10.063l-14.268,24.299L452.333,554.62z"/>
					<path fill="#26A687" d="M355.11,497.508c7.874-13.416,3.397-30.688-9.994-38.556l-14.271,24.298L355.11,497.508z"/>
					<path fill="#26A687" d="M494.334,483.131c-7.884,13.408-3.399,30.627,9.983,38.49l14.243-24.253L494.334,483.131z"/>
					<path fill="#26A687" d="M397.094,426.019c-7.863,13.402-25.111,17.868-38.506,9.996l14.246-24.246L397.094,426.019z"/>
					<path fill="#26A687" d="M457.021,508.542c-3.72,6.321-1.607,14.504,4.732,18.232c6.347,3.724,14.516,1.584,18.231-4.742
						c3.717-6.327,1.596-14.483-4.743-18.219C468.893,500.09,460.733,502.21,457.021,508.542z"/>
					<path fill="#26A687" d="M403.256,477.706c-6.942,11.825-2.994,27.049,8.837,34.003c11.833,6.944,27.068,2.996,34.014-8.837
						c6.954-11.826,2.994-27.068-8.846-34.011C425.429,461.904,410.214,465.875,403.256,477.706z"/>
					<path fill="#26A687" d="M374.192,459.892c-3.713,6.32-1.605,14.501,4.737,18.23c6.332,3.724,14.521,1.584,18.231-4.743
						c3.717-6.32,1.583-14.493-4.747-18.212C386.067,451.444,377.914,453.557,374.192,459.892z"/>
					<path fill="#8FD2C7" d="M429.9,502.104c-3.089,5.233-7.314,5.061-11.408,2.803l-1.846,3.14L413.153,506l1.869-3.166
						c-2.499-1.684-4.229-3.221-5.725-4.829l2.77-4.712c2.088,1.522,5.908,4.016,7.705,5.068c2.141,1.252,3.266,1.701,4.457-0.337
						l0.523-0.875c0.934-1.59,0.648-2.623-1.277-3.757l-2.942-1.729c-5.44-3.195-3.948-8.302-2.232-11.224l0.894-1.522
						c3.663-6.228,8.182-5.461,11.818-3.313l1.775-3.026l3.499,2.046l-1.802,3.053c2.94,1.837,3.837,2.736,5.765,4.896l-2.724,4.631
						c-1.393-0.973-4.861-3.34-8.262-5.333c-1.535-0.9-2.994-1.284-3.936,0.312l-0.629,1.066c-0.762,1.312-0.813,2.351,0.982,3.405
						l2.827,1.657c6.559,3.855,3.896,9.514,2.71,11.527L429.9,502.104z"/>
				</g>
			</g>
		</g>
		<g>
			<g>
				<g>
					<g>
						<path fill="#F49A1F" d="M465.702,485.854c-7.154,18.356,1.933,39.04,20.297,46.182l25.884-66.48
							C493.519,458.407,472.843,467.497,465.702,485.854z"/>
						<path fill="#F49A1F" d="M532.188,511.737c-1.35,3.469-3.192,6.61-5.406,9.38c-3.18,3.974-7.156,7.162-11.587,9.435
							c-6.855,3.505-14.805,4.783-22.677,3.338c-2.185-0.398-4.373-1.021-6.519-1.854l25.884-66.48
							c0.754,0.286,1.49,0.604,2.22,0.948C530.968,474.387,539.036,494.128,532.188,511.737z"/>
					</g>
					<path fill="#FFCB07" d="M505.437,463.039c-18.364-7.148-39.033,1.939-46.188,20.306c-7.142,18.349,1.941,39.031,20.299,46.178
						c18.362,7.157,39.04-1.939,46.187-20.297C532.875,490.87,523.793,470.188,505.437,463.039z"/>
					<g>
						<path fill="#F49A1F" d="M464.84,485.523c-5.941,15.255,1.617,32.468,16.884,38.401l21.526-55.288
							C487.987,462.695,470.789,470.253,464.84,485.523z"/>
						<path fill="#F4931F" d="M503.25,468.637l-21.526,55.288c15.272,5.949,32.471-1.61,38.412-16.879
							C526.085,491.784,518.527,474.578,503.25,468.637z"/>
					</g>
					<path fill="#FFCB07" d="M484.343,483.729c2.556-6.561,7.435-7.129,12.534-5.313l1.523-3.93l4.372,1.696l-1.548,3.967
						c3.164,1.459,5.431,2.904,7.431,4.467l-2.291,5.901c-2.679-1.357-7.499-3.504-9.76-4.378c-2.668-1.04-4.04-1.352-5.035,1.206
						l-0.428,1.105c-0.77,1.98-0.267,3.119,2.158,4.053l3.678,1.439c6.816,2.65,6.048,8.771,4.623,12.428l-0.743,1.909
						c-3.041,7.803-8.353,7.75-12.909,5.975l-1.472,3.79l-4.366-1.704l1.478-3.823c-3.697-1.562-4.883-2.422-7.485-4.529
						l2.265-5.804c1.763,0.848,6.169,2.915,10.429,4.569c1.922,0.751,3.668,0.915,4.438-1.083l0.524-1.34
						c0.642-1.642,0.496-2.834-1.755-3.71l-3.534-1.379c-8.213-3.198-6.207-10.162-5.227-12.685L484.343,483.729z"/>
				</g>
				<g opacity="0.3">
					<path fill="#FFCB07" d="M497.036,460.898l-33.686,14.812c-1.623,2.294-3.003,4.824-4.076,7.565l46.083-20.258
						C502.628,461.958,499.832,461.257,497.036,460.898z"/>
					<path fill="#FFCB07" d="M516.202,469.615l-59.392,26.114c-0.092,6.614,1.655,13.085,4.954,18.685l64.856-28.502
						C524.729,479.687,521.149,474.017,516.202,469.615z"/>
				</g>
			</g>
		</g>
		<g>
			<path fill="#203145" d="M650.69,411.923c-0.018-8.561-7.359-15.55-16.343-15.536l-52.939,0.079l-52.973,0.079
				c-8.967,0.013-16.293,7.035-16.281,15.588l0.331,125.321c0.013,8.571,7.367,15.556,16.349,15.542l52.941-0.08l52.964-0.086
				c8.97-0.006,16.309-7.022,16.297-15.588L650.69,411.923z"/>
			<path fill="#2C486C" d="M640.289,411.923c-0.014-8.561-7.359-15.55-16.342-15.536L571,396.466l-52.963,0.079
				c-8.971,0.013-16.305,7.035-16.283,15.588l0.331,125.321c0.012,8.571,7.365,15.556,16.35,15.542l52.944-0.08l52.959-0.086
				c8.971-0.006,16.31-7.022,16.29-15.588L640.289,411.923z"/>
			<g>
				<path fill="#C4C4C4" d="M623.712,465.112h-12.028c-6.438,0-11.646,5.206-11.646,11.644v39.518v10.733v1.305
					c0,6.426,5.208,11.647,11.646,11.647h12.028c6.423,0,11.649-5.222,11.649-11.647v-1.305v-10.733v-39.518
					C635.361,470.318,630.135,465.112,623.712,465.112z"/>
				<path fill="#C4C4C4" d="M547.199,488.775c0,6.438-5.221,11.653-11.647,11.653h-12.03c-6.425,0-11.646-5.215-11.646-11.653
					v-12.02c0-6.438,5.222-11.644,11.646-11.644h12.03c6.427,0,11.647,5.206,11.647,11.644V488.775z"/>
				<path fill="#C4C4C4" d="M547.199,528.312c0,6.426-5.221,11.647-11.647,11.647h-12.03c-6.425,0-11.646-5.222-11.646-11.647
					v-12.038c0-6.418,5.222-11.638,11.646-11.638h12.03c6.427,0,11.647,5.22,11.647,11.638V528.312z"/>
				<path fill="#C4C4C4" d="M591.055,488.775c0,6.438-5.214,11.653-11.64,11.653h-12.037c-6.426,0-11.647-5.215-11.647-11.653
					v-12.02c0-6.438,5.222-11.644,11.647-11.644h12.037c6.426,0,11.64,5.206,11.64,11.644V488.775z"/>
				<path fill="#C4C4C4" d="M591.055,528.312c0,6.426-5.214,11.647-11.64,11.647h-12.037c-6.426,0-11.647-5.222-11.647-11.647
					v-12.038c0-6.418,5.222-11.638,11.647-11.638h12.037c6.426,0,11.64,5.22,11.64,11.638V528.312z"/>
			</g>
			<g>
				<path fill="#FFFFFF" d="M619.225,465.112h-12.031c-6.427,0-11.634,5.206-11.634,11.644v39.518v10.733v1.305
					c0,6.426,5.207,11.647,11.634,11.647h12.031c6.425,0,11.646-5.222,11.646-11.647v-1.305v-10.733v-39.518
					C630.87,470.318,625.649,465.112,619.225,465.112z"/>
				<path fill="#FFFFFF" d="M542.714,488.775c0,6.438-5.214,11.653-11.646,11.653h-12.024c-6.44,0-11.646-5.215-11.646-11.653
					v-12.02c0-6.438,5.205-11.644,11.646-11.644h12.024c6.433,0,11.646,5.206,11.646,11.644V488.775z"/>
				<path fill="#FFFFFF" d="M542.714,528.312c0,6.426-5.214,11.647-11.646,11.647h-12.024c-6.44,0-11.646-5.222-11.646-11.647
					v-12.038c0-6.418,5.205-11.638,11.646-11.638h12.024c6.433,0,11.646,5.22,11.646,11.638V528.312z"/>
				<path fill="#FFFFFF" d="M586.563,488.775c0,6.438-5.206,11.653-11.641,11.653h-12.023c-6.438,0-11.645-5.215-11.645-11.653
					v-12.02c0-6.438,5.207-11.644,11.645-11.644h12.023c6.435,0,11.641,5.206,11.641,11.644V488.775z"/>
				<path fill="#FFFFFF" d="M586.563,528.312c0,6.426-5.206,11.647-11.641,11.647h-12.023c-6.438,0-11.645-5.222-11.645-11.647
					v-12.038c0-6.418,5.207-11.638,11.645-11.638h12.023c6.435,0,11.641,5.22,11.641,11.638V528.312z"/>
			</g>
			<g>
				<path fill="#203145" d="M513.718,479.116h7.625v-7.686h7.307v7.686h7.736v7.3h-7.736v7.685h-7.307v-7.685h-7.625V479.116z"/>
			</g>
			<g>
				<path fill="#203145" d="M514.472,527.708l5.394-5.397l-5.433-5.432l5.16-5.163l5.44,5.435l5.465-5.468l5.16,5.154l-5.473,5.474
					l5.439,5.432l-5.16,5.166l-5.432-5.43l-5.393,5.391L514.472,527.708z"/>
			</g>
			<g>
				<path fill="#203145" d="M557.917,479.116h21.98v7.3h-21.98V479.116z"/>
			</g>
			<g>
				<g>
					<path fill="#EF4645" d="M603.303,494.406h19.801v6.214h-19.801V494.406z M603.303,504.448h19.801v6.208h-19.801V504.448z"/>
				</g>
			</g>
			<g>
				<g>
					<g>
						<path fill="#203145" d="M557.917,518.641h21.98v7.306h-21.98V518.641z"/>
					</g>
				</g>
				<g>
					<g>
						<path fill="#203145" d="M572.301,512.611c0-1.868-1.518-3.386-3.393-3.386c-1.869,0-3.385,1.518-3.385,3.386
							c0,1.883,1.516,3.398,3.385,3.398C570.783,516.01,572.301,514.494,572.301,512.611z"/>
						<path fill="#203145" d="M572.301,531.968c0-1.868-1.518-3.384-3.393-3.384c-1.869,0-3.385,1.516-3.385,3.384
							c0,1.875,1.516,3.393,3.385,3.393C570.783,535.36,572.301,533.843,572.301,531.968z"/>
					</g>
				</g>
			</g>
			<path fill="#54C1AA" d="M632.963,433.38c0,6.52-5.287,11.805-11.807,11.805h-99.927c-6.525,0-11.818-5.285-11.818-11.805v-14.362
				c0-6.52,5.293-11.808,11.818-11.808h99.927c6.52,0,11.807,5.288,11.807,11.808V433.38z"/>
			<g>
				<path fill="#FFFFFF" d="M572.981,434.724h8.588c2.013,0,1.913-1.072,1.913-1.724v-1.005c0-1.074-0.323-1.724-1.558-1.724h-1.431
					c-1.039,0-1.431,0.458-1.431,1.463h-6.04l0.713-15.116h15.046v5.657h-8.91l-0.126,3.313c0.842-0.517,1.689-0.615,2.112-0.647
					c0.851-0.068,2.049-0.033,2.465,0c3.776,0.322,5.468,2.927,5.468,6.371v3.055c0,4.453-3.414,6.174-6.6,6.174
					c-4.035,0-5.848-0.033-10.21-0.776V434.724z"/>
				<path fill="#FFFFFF" d="M597.626,416.584c3.253-0.522,7.771,0.034,10.8,0.683v4.811h-7.122c-2.96,0-2.96,1.762-2.96,4.133
					c1.204-0.622,2.245-0.688,4.974-0.688c4.749,0,5.883,2.604,5.883,6.149v2.952c0,4.226-2.438,5.818-6.208,5.818h-4.484
					c-3.97,0-6.475-2.271-6.475-12.507C592.033,419.321,594.739,417.041,597.626,416.584z M600.947,434.783h0.547
					c1.074,0,1.4-0.291,1.4-1.491v-0.647c0-1.399-0.033-1.789-1.232-1.789h-3.318C598.344,434.3,598.832,434.783,600.947,434.783z"
					/>
				<path fill="#FFFFFF" d="M610.803,416.618h15.634l1.532,2.537l-7.447,21.26h-6.696l6.433-18.14h-9.455V416.618z"/>
			</g>
			<path fill="#26A687" d="M631.2,412.816c-2.134-2.047-4.968-3.353-8.188-3.353h-99.928c-6.512,0-11.819,5.306-11.819,11.818
				v14.362c0,2.285,0.657,4.427,1.724,6.188c-2.186-2.146-3.583-5.154-3.583-8.466v-14.364c0-6.511,5.306-11.817,11.812-11.817
				h99.939C625.386,407.185,629.107,409.423,631.2,412.816z"/>
			<g opacity="0.5">
				<path fill="#96D7DD" d="M537.804,407.21l-28.182,28.184c0.504,2.914,2.075,5.418,4.293,7.193l35.37-35.377H537.804z"/>
				<polygon fill="#96D7DD" points="562.82,407.21 524.847,445.185 571.498,445.185 609.472,407.21 				"/>
			</g>
		</g>
	</g>
</g>
<g id="bphtb" display="none">
	<rect x="-2.379" y="-5.039" display="inline" fill="#3B97D3" width="803.938" height="709.45"/>
	<g display="inline">
		<g>
			<polygon fill="#C4C4C4" points="579.781,435.73 568.592,437.873 503.439,104.381 514.531,102.349 			"/>
			<g>
				<polygon fill="#FFFFFF" points="568.592,437.873 392.55,472.265 327.41,138.772 503.439,104.381 				"/>
				<path fill="#26A687" d="M371.408,168.335l102.424-20l50.77,259.968l-102.409,20L371.408,168.335L371.408,168.335z
					 M341.985,148.606l60.355,309.038l151.611-29.614l-60.377-309.045L341.985,148.606L341.985,148.606z"/>
				<path fill="#26A687" d="M392.313,406.234c28.437-5.543,56.035,12.97,61.577,41.341l-51.55,10.069L392.313,406.234z"/>
				<path fill="#26A687" d="M352.032,200.04c28.445-5.55,47.04-33.088,41.48-61.51l-51.528,10.077L352.032,200.04z"/>
				<path fill="#26A687" d="M543.918,376.628c-28.415,5.558-46.943,33.065-41.415,61.437l51.448-10.034L543.918,376.628z"/>
				<path fill="#26A687" d="M503.645,170.44c-28.422,5.558-55.945-13.008-61.487-41.407l51.417-10.048L503.645,170.44z"/>
				<path fill="#26A687" d="M462.399,355.92c-13.404,2.614-22.238,15.658-19.596,29.106c2.628,13.442,15.695,22.209,29.113,19.588
					c13.398-2.613,22.173-15.649,19.56-29.092C488.848,362.06,475.835,353.292,462.399,355.92z"/>
				<path fill="#26A687" d="M439.093,242.831c-25.093,4.895-41.464,29.187-36.556,54.274c4.896,25.094,29.219,41.487,54.312,36.593
					c25.088-4.911,41.473-29.254,36.564-54.326C488.509,254.277,464.196,237.927,439.093,242.831z"/>
				<path fill="#26A687" d="M428.104,180.274c-13.413,2.614-22.238,15.658-19.597,29.1c2.599,13.419,15.68,22.231,29.091,19.603
					c13.42-2.628,22.196-15.687,19.567-29.091C454.537,186.414,441.508,177.654,428.104,180.274z"/>
				<path fill="#8FD2C7" d="M437.909,310.097c-11.108,2.172-16.084-3.938-17.992-12.44l-6.66,1.303l-1.443-7.398l6.72-1.303
					c-0.743-5.564-0.706-9.878-0.331-13.957l9.997-1.943c0.472,4.792,1.701,13.191,2.444,17.004c0.884,4.52,1.648,6.668,5.977,5.815
					l1.87-0.354c3.335-0.662,4.461-2.341,3.658-6.426l-1.214-6.235c-2.261-11.521,6.714-15.753,12.897-16.975l3.246-0.626
					c13.213-2.576,17.719,4.675,19.22,12.412l6.396-1.266l1.458,7.405l-6.477,1.258c1.052,6.375,0.911,8.73,0.285,14.09l-9.855,1.92
					c-0.346-3.15-1.311-10.909-2.731-18.108c-0.633-3.276-1.913-5.771-5.285-5.117l-2.267,0.442
					c-2.775,0.551-4.291,1.752-3.557,5.572l1.179,5.977c2.724,13.92-8.473,17.182-12.742,18.02L437.909,310.097z"/>
			</g>
		</g>
		<g>
			<polygon fill="#C4C4C4" points="544.89,375.486 537.446,384.113 279.313,163.138 286.732,154.672 			"/>
			<g>
				<polygon fill="#FFFFFF" points="537.446,384.113 420.809,520.377 162.666,299.386 279.313,163.138 				"/>
				<path fill="#26A687" d="M215.527,295.264l67.841-79.265l201.217,172.252l-67.841,79.257L215.527,295.264L215.527,295.264z
					 M180.186,298.046l239.218,204.781l100.444-117.345L280.636,180.716L180.186,298.046L180.186,298.046z"/>
				<path fill="#26A687" d="M379.623,468.768c18.837-22.003,51.949-24.63,73.921-5.83l-34.141,39.89L379.623,468.768z"/>
				<path fill="#26A687" d="M220.024,332.143c18.853-22.017,16.298-55.142-5.683-73.979l-34.156,39.882L220.024,332.143z"/>
				<path fill="#26A687" d="M480.08,351.43c-18.837,21.995-16.281,55.069,5.691,73.869l34.076-39.816L480.08,351.43z"/>
				<path fill="#26A687" d="M320.484,214.813c-18.837,21.988-51.935,24.535-73.915,5.705l34.067-39.802L320.484,214.813z"/>
				<path fill="#26A687" d="M403.318,385.807c-8.899,10.372-7.707,26.066,2.702,34.981c10.409,8.914,26.11,7.67,34.987-2.724
					c8.878-10.365,7.699-26.03-2.716-34.944C427.869,374.19,412.195,375.405,403.318,385.807z"/>
				<path fill="#26A687" d="M314.823,311.621c-16.629,19.427-14.355,48.628,5.056,65.25c19.426,16.622,48.665,14.384,65.279-5.034
					c16.629-19.427,14.347-48.688-5.063-65.309C360.682,289.913,331.452,292.202,314.823,311.621z"/>
				<path fill="#26A687" d="M267.357,269.412c-8.885,10.394-7.699,26.081,2.703,34.995c10.393,8.893,26.11,7.678,35.001-2.708
					c8.894-10.387,7.641-26.073-2.724-34.966C291.929,257.825,276.25,259.032,267.357,269.412z"/>
				<path fill="#8FD2C7" d="M355.677,365.085c-7.368,8.612-15.083,6.896-21.84,1.428l-4.402,5.146l-5.735-4.902l4.453-5.189
					c-4.034-3.895-6.691-7.303-8.899-10.74l6.617-7.722c3.333,3.467,9.518,9.282,12.469,11.807c3.504,3.012,5.426,4.211,8.281,0.854
					l1.259-1.436c2.224-2.591,2.024-4.601-1.126-7.31l-4.828-4.145c-8.93-7.619-4.535-16.511-0.405-21.311l2.134-2.503
					c8.76-10.217,16.798-7.332,22.774-2.193l4.241-4.977l5.735,4.903l-4.307,5.005c4.793,4.343,6.147,6.271,8.974,10.873
					l-6.522,7.604c-2.238-2.229-7.795-7.707-13.383-12.484c-2.524-2.164-5.086-3.335-7.331-0.714l-1.51,1.752
					c-1.826,2.149-2.252,4.042,0.692,6.559l4.623,3.976c10.784,9.209,4.048,18.704,1.207,22.032L355.677,365.085z"/>
			</g>
		</g>
		<g>
			<polygon fill="#C4C4C4" points="512.294,362.045 511.095,373.374 173.083,338.563 174.378,327.381 			"/>
			<g>
				<polygon fill="#FFFFFF" points="511.095,373.374 492.72,551.795 154.702,516.968 173.083,338.563 				"/>
				<path fill="#26A687" d="M195.821,483.513l10.688-103.801l263.479,27.141L459.293,510.66L195.821,483.513L195.821,483.513z
					 M168.349,505.904l313.242,32.265l15.812-153.658l-313.227-32.271L168.349,505.904L168.349,505.904z"/>
				<path fill="#26A687" d="M429.48,532.803c2.981-28.834,28.717-49.828,57.483-46.84l-5.373,52.206L429.48,532.803z"/>
				<path fill="#26A687" d="M220.503,511.293c2.975-28.848-17.976-54.656-46.765-57.616l-5.389,52.228L220.503,511.293z"/>
				<path fill="#26A687" d="M445.322,379.145c-2.974,28.805,17.961,54.531,46.734,57.491l5.346-52.125L445.322,379.145z"/>
				<path fill="#26A687" d="M236.329,357.628c-2.966,28.789-28.73,49.718-57.52,46.743l5.366-52.132L236.329,357.628z"/>
				<path fill="#26A687" d="M401.75,451.093c-1.397,13.597,8.519,25.839,22.144,27.229c13.647,1.399,25.831-8.554,27.229-22.149
					c1.398-13.597-8.517-25.787-22.149-27.192C415.347,427.582,403.143,437.489,401.75,451.093z"/>
				<path fill="#26A687" d="M286.791,440.449c-2.627,25.433,15.855,48.164,41.289,50.785c25.433,2.613,48.179-15.864,50.799-41.312
					c2.636-25.411-15.878-48.18-41.31-50.793C312.129,396.495,289.403,415.016,286.791,440.449z"/>
				<path fill="#26A687" d="M223.735,432.741c-1.407,13.604,8.502,25.839,22.15,27.252c13.595,1.384,25.823-8.562,27.229-22.157
					c1.405-13.597-8.562-25.786-22.166-27.192C237.323,409.244,225.126,419.153,223.735,432.741z"/>
				<path fill="#8FD2C7" d="M350.812,461.171c-1.178,11.27-8.465,14.236-17.166,13.581l-0.7,6.758l-7.48-0.78l0.7-6.802
					c-5.528-0.913-9.651-2.179-13.434-3.762l1.045-10.122c4.733,0.972,13.109,2.224,16.989,2.621
					c4.586,0.479,6.854,0.367,7.296-4.026l0.184-1.885c0.359-3.408-0.907-4.946-5.065-5.359l-6.308-0.669
					c-11.712-1.178-13.132-10.998-12.485-17.284l0.324-3.283c1.407-13.405,9.672-15.576,17.491-14.76l0.661-6.515l7.494,0.788
					l-0.684,6.552c6.426,0.854,8.635,1.663,13.567,3.827l-1.038,9.967c-3.099-0.573-10.807-1.892-18.101-2.642
					c-3.329-0.354-6.096,0.154-6.456,3.584l-0.237,2.282c-0.286,2.819,0.449,4.616,4.3,5.013l6.087,0.627
					c14.081,1.457,13.957,13.102,13.508,17.431L350.812,461.171z"/>
			</g>
		</g>
		<g>
			<g id="shield_4_">
				<g>
					<path fill="#0D0E0F" d="M628.085,292.989l-15.474,0.449c-3.318,0-21.096-0.611-47.582-12.61
						c-19.78-8.959-38.639-28.12-38.83-28.304l-10.525-10.754h-16.461c-0.215,0.198-13.133,30.099-32.868,39.058
						c-26.492,11.999-44.298,12.61-47.611,12.61l-0.236,0.008l-15.398-0.744v118.183c0,88.306,91.845,162.439,96.114,165.304h16.461
						l8.251-5.558c4.239-2.849,104.323-71.44,104.323-159.746V308.124L628.085,292.989z"/>
					<path fill="#203145" d="M611.619,292.989l-15.467,0.449c-3.32,0-21.119-0.611-47.598-12.61
						c-19.779-8.959-38.646-28.12-38.816-28.304l-10.525-10.754l-10.526,10.754c-0.198,0.185-19.072,19.345-38.801,28.304
						c-26.492,11.999-44.321,12.61-47.627,12.61l-0.235,0.008l-15.399-0.744v118.183c0,88.306,100.082,156.897,104.359,159.746
						l8.229,5.558l8.237-5.558c4.262-2.849,104.323-71.44,104.323-159.746V308.124L611.619,292.989z"/>
					<g>
						<path fill="#304C71" d="M455.959,294.248c-32.993,14.907-54.628,13.876-54.628,13.876v102.762
							c0,81.496,97.882,147.556,97.882,147.556V262.801C499.213,262.801,478.586,283.958,455.959,294.248z"/>
						<path fill="#2C486C" d="M542.475,294.248c-22.643-10.29-43.262-31.447-43.262-31.447v295.641c0,0,97.867-66.06,97.867-147.556
							V308.124C597.08,308.124,575.445,309.155,542.475,294.248z"/>
					</g>
					<g opacity="0.2">
						<path fill="#2C486C" d="M513.832,275.859L401.331,388.361v22.524c0,6.472,0.67,12.846,1.812,19.088l136.91-136.903
							C530.284,288.278,521.047,281.705,513.832,275.859z"/>
						<path fill="#2C486C" d="M597.08,308.124c0,0-4.74,0.207-13.065-1.052l-165.237,165.2
							c12.492,22.532,29.672,42.04,44.978,56.739L597.08,395.715V308.124z"/>
					</g>
				</g>
			</g>
		</g>
	</g>
</g>
<g id="perizinan" display="none">
	<rect x="-2.379" y="-5.039" display="inline" fill="#3B97D3" width="803.938" height="709.45"/>
	<g display="inline">
		<rect x="129.074" y="141.019" fill="#FFFFFF" width="205.226" height="296.057"/>
		<g>
			<g>
				<rect x="148.046" y="203.849" fill="#434343" width="93.493" height="7.89"/>
				<rect x="148.046" y="179.601" fill="#434343" width="93.493" height="7.89"/>
				<rect x="148.046" y="230.741" fill="#434343" width="93.493" height="7.89"/>
				<rect x="148.046" y="260.674" fill="#434343" width="167.224" height="7.89"/>
				<rect x="148.046" y="290.608" fill="#434343" width="167.224" height="7.889"/>
				<rect x="148.046" y="320.54" fill="#434343" width="167.224" height="7.891"/>
				<rect x="148.046" y="350.474" fill="#434343" width="167.224" height="7.888"/>
			</g>
			<g>
				<g>
					<polygon fill="#F1B41C" points="292.12,239.467 283.899,249.199 270.75,211.913 291.478,204.602 304.628,241.887 					"/>
				</g>
				<g>
					<polygon fill="#FAC200" points="265.332,239.467 273.553,249.199 286.703,211.913 265.975,204.602 252.825,241.887 					"/>
				</g>
				<circle fill="#F6CD35" cx="279.881" cy="200.634" r="21.033"/>
			</g>
		</g>
	</g>
	<g display="inline">
		<g>
			<path fill="#FFC42D" d="M643.611,496.844c0,13.145-5.314,25.018-13.92,33.623c-8.605,8.604-20.502,13.92-33.622,13.92H254.977
				v-95.085h341.092C622.331,449.302,643.611,470.581,643.611,496.844z"/>
			<path fill="#EAEAEA" d="M643.616,496.844c0,13.147-5.321,25.021-13.926,33.626s-20.508,13.911-33.627,13.911h-341.09v-95.076
				h341.09C622.332,449.305,643.616,470.587,643.616,496.844z"/>
			<path fill="#FFFFFF" d="M596.214,449.311c9.195,7.459,15.072,18.842,15.072,31.604c0,11.256-4.555,21.419-11.921,28.785
				c-7.365,7.364-17.555,11.907-28.785,11.907l-315.607-0.853v23.626h341.09c13.119,0,25.022-5.307,33.627-13.911
				s13.926-20.479,13.926-33.626C643.616,470.641,622.414,449.391,596.214,449.311z"/>
			<path fill="#40829E" d="M664.215,496.844c0,0.395,0,0.789-0.015,1.186c-0.016,0.486-0.016,0.956-0.03,1.441
				c-0.031,0.672-0.063,1.354-0.121,2.008c-0.063,1.082-0.17,2.145-0.291,3.207c-0.137,1.203-0.303,2.388-0.501,3.575
				c-0.09,0.546-0.197,1.092-0.305,1.642c-0.092,0.438-0.182,0.896-0.273,1.352c-0.15,0.686-0.303,1.353-0.472,2.021
				c-0.122,0.502-0.258,1.003-0.395,1.506c-0.136,0.53-0.288,1.064-0.456,1.597c-0.228,0.775-0.471,1.534-0.729,2.295
				c-0.184,0.532-0.365,1.063-0.564,1.58c-0.105,0.306-0.228,0.623-0.35,0.93c-0.12,0.348-0.258,0.697-0.411,1.048
				c-0.348,0.881-0.729,1.764-1.124,2.63c-0.196,0.455-0.41,0.897-0.622,1.337c-0.745,1.567-1.552,3.088-2.418,4.593
				c-0.211,0.38-0.426,0.761-0.669,1.123c-0.364,0.623-0.745,1.246-1.14,1.855c-0.258,0.395-0.517,0.775-0.774,1.155
				c-0.167,0.259-0.337,0.501-0.519,0.76c-0.258,0.38-0.53,0.761-0.806,1.125c-0.197,0.273-0.395,0.547-0.606,0.838
				c-0.306,0.409-0.609,0.805-0.913,1.199c-0.486,0.609-0.974,1.203-1.475,1.793c-0.335,0.413-0.685,0.808-1.019,1.202
				c-0.379,0.41-0.745,0.82-1.125,1.23c-0.366,0.398-0.73,0.793-1.11,1.173c-0.365,0.379-0.761,0.775-1.141,1.154
				c-0.38,0.38-0.774,0.761-1.169,1.125c-0.472,0.426-0.927,0.868-1.398,1.277c-0.337,0.303-0.668,0.591-1.02,0.882
				c-1.308,1.126-2.646,2.173-4.028,3.192c-0.366,0.258-0.731,0.517-1.095,0.774c-7.647,5.383-16.432,9.213-25.934,11.065
				c-0.396,0.093-0.808,0.17-1.218,0.229c-3.876,0.686-7.859,1.051-11.918,1.051H255.429c-3.587,0-6.826-1.461-9.167-3.8
				c-2.355-2.343-3.8-5.598-3.8-9.17c0-1.306,0.198-2.567,0.548-3.753c1.626-5.338,6.567-9.213,12.42-9.213h340.634
				c11.295,0,21.891-4.38,29.872-12.361c8.041-8.055,12.449-18.788,12.359-30.205c-0.197-23.335-19.838-41.867-43.175-41.867
				H255.429c-3.587,0-6.826-1.459-9.167-3.802c-2.355-2.339-3.8-5.594-3.8-9.165c0-7.162,5.808-12.951,12.968-12.951h339.433
				c2.994,0,5.944,0.195,8.832,0.562c20.068,2.567,37.688,13.759,48.646,29.706c5.959,8.648,9.959,18.682,11.343,29.507
				c0.074,0.621,0.137,1.244,0.212,1.867c0.105,1.173,0.197,2.344,0.243,3.527c0.031,0.41,0.046,0.824,0.046,1.232
				C664.2,495.687,664.215,496.265,664.215,496.844z"/>
			<g>
				<path fill="#0A7FB8" d="M664.215,496.844c0,0.395,0,0.789-0.015,1.186c-0.016,0.486-0.016,0.956-0.03,1.441
					c-0.031,0.672-0.063,1.354-0.121,2.008c-0.063,1.082-0.17,2.145-0.291,3.207c-0.137,1.203-0.303,2.388-0.501,3.575
					c-0.09,0.546-0.197,1.092-0.305,1.642c-0.092,0.438-0.182,0.896-0.273,1.352c-0.15,0.686-0.303,1.353-0.472,2.021
					c-0.122,0.502-0.258,1.003-0.395,1.506c-0.136,0.53-0.288,1.064-0.456,1.597c-0.228,0.775-0.471,1.534-0.729,2.295
					c-0.184,0.532-0.365,1.063-0.564,1.58c-0.105,0.306-0.228,0.623-0.35,0.93c-0.12,0.348-0.258,0.697-0.411,1.048
					c-0.348,0.881-0.729,1.764-1.124,2.63c-0.196,0.455-0.41,0.897-0.622,1.337c-0.745,1.567-1.552,3.088-2.418,4.593
					c-0.211,0.38-0.426,0.761-0.669,1.123c-0.364,0.623-0.745,1.246-1.14,1.855c-0.258,0.395-0.517,0.775-0.774,1.155
					c-0.167,0.259-0.337,0.501-0.519,0.76c-0.258,0.38-0.53,0.761-0.806,1.125c-0.197,0.273-0.395,0.547-0.606,0.838
					c-0.306,0.409-0.609,0.805-0.913,1.199c-0.486,0.609-0.974,1.203-1.475,1.793c-0.335,0.413-0.685,0.808-1.019,1.202
					c-0.379,0.41-0.745,0.82-1.125,1.23c-0.366,0.398-0.73,0.793-1.11,1.173c-0.365,0.379-0.761,0.775-1.141,1.154
					c-0.38,0.38-0.774,0.761-1.169,1.125c-0.472,0.426-0.927,0.868-1.398,1.277c-0.337,0.303-0.668,0.591-1.02,0.882
					c-1.308,1.126-2.646,2.173-4.028,3.192c-0.366,0.258-0.731,0.517-1.095,0.774c-7.647,5.383-16.432,9.213-25.934,11.065
					c-0.396,0.093-0.808,0.17-1.218,0.229c-3.876,0.686-7.859,1.051-11.918,1.051H255.429c-3.587,0-6.826-1.461-9.167-3.8
					c-2.355-2.343-3.8-5.598-3.8-9.17c0-1.306,0.198-2.567,0.548-3.753h353.054c34.75,0,63.483-26.148,67.62-59.79
					c0.074,0.621,0.137,1.244,0.212,1.867c0.105,1.173,0.197,2.344,0.243,3.527c0.031,0.41,0.046,0.824,0.046,1.232
					C664.2,495.687,664.215,496.265,664.215,496.844z"/>
			</g>
			<rect x="254.973" y="461.71" fill="#F2F2F2" width="354.504" height="1.521"/>
			<rect x="254.973" y="474.887" fill="#F2F2F2" width="354.504" height="1.521"/>
			<rect x="254.973" y="488.061" fill="#F2F2F2" width="354.504" height="1.521"/>
			<rect x="254.973" y="501.235" fill="#F2F2F2" width="354.504" height="1.521"/>
			<rect x="254.973" y="514.412" fill="#F2F2F2" width="354.504" height="1.521"/>
			<g>
				<polygon fill="#D31E44" points="565.251,524.725 581.832,533.706 581.832,463.23 548.67,463.23 548.67,533.706 				"/>
				<polygon fill="#C01F45" points="565.78,463.23 565.78,525.013 581.832,533.706 581.832,463.23 				"/>
			</g>
			<path fill="#06B1CE" d="M602.269,439.515h1.452c5.398,0.14,25.253,1.913,48.62,19.461c-5.338-7.771-12.267-14.397-20.279-19.461
				h0.501c-8.983-5.822-19.382-9.638-30.479-10.807H252.13c-5.078,1.275-8.954,5.53-9.669,10.807h359.804l0,0H602.269z"/>
		</g>
	</g>
	<g display="inline">
		<path fill="#7A554F" d="M347.175,360.298l-32.883,42.688c-1.247,1.579-3.542,1.867-5.139,0.638l-15.84-12.209l-13.682-10.534
			l-5.001-3.86l-7.267-5.595l-3.877-2.995h-0.015l-9.425-7.266l-4.211-3.239l-15.826-12.192c-1.611-1.247-1.915-3.557-0.668-5.169
			l32.837-42.642c1.247-1.61,3.557-1.9,5.168-0.668l15.841,12.206l43.463,33.491l15.84,12.207
			C348.101,356.391,348.406,358.686,347.175,360.298z"/>
		<path fill="#6C4844" d="M316.989,395.726l-16.355-12.604l-14.127-10.88l-5.164-3.986l-7.503-5.775l-4.002-3.091h-0.015
			l-9.732-7.504l-4.348-3.344l-16.34-12.589c-0.579-0.447-0.983-1.031-1.224-1.67l-4.838,6.282
			c-1.246,1.612-0.942,3.922,0.668,5.169l15.826,12.192l4.211,3.239l9.425,7.266h0.015l3.877,2.995l7.267,5.595l5.001,3.86
			l13.682,10.534l15.84,12.209c1.597,1.229,3.892,0.941,5.139-0.638l4.996-6.488C318.483,396.495,317.674,396.254,316.989,395.726z"
			/>
		<path fill="#7A554F" d="M285.226,373.463l-5.595,7.418L141.475,563.93c-4.424,5.988-12.892,7.176-18.791,2.645
			c-0.213-0.166-0.411-0.335-0.623-0.501c-0.198-0.182-0.38-0.365-0.578-0.546c-0.563-0.55-1.065-1.142-1.505-1.749
			c-1.626-2.281-2.463-5.004-2.463-7.738c0-0.35,0.016-0.715,0.045-1.065c0.015-0.317,0.061-0.639,0.122-0.956
			c0.03-0.244,0.075-0.472,0.121-0.716c0-0.029,0.015-0.06,0.015-0.089c0.122-0.609,0.304-1.232,0.548-1.826
			c0.106-0.303,0.227-0.608,0.365-0.896c0.137-0.288,0.289-0.58,0.441-0.868c0.167-0.287,0.334-0.575,0.517-0.852
			c0.228-0.347,0.471-0.697,0.745-1.033l6.188-7.753l136.849-171.555h0.015l5.792-7.266l10.946,8.436L285.226,373.463z"/>
		<path fill="#6C4844" d="M119.692,548.77c0.849,2.161,2.262,4.135,4.24,5.658c5.893,4.54,14.367,3.353,18.785-2.63l137.504-182.194
			l5.003,3.854L141.472,563.936c-4.419,5.985-12.892,7.174-18.785,2.633C117.134,562.29,115.918,554.505,119.692,548.77z"/>
		
			<rect x="330.234" y="356.173" transform="matrix(-0.7921 -0.6104 0.6104 -0.7921 362.2994 889.6257)" fill="#61403D" width="4.84" height="53.88"/>
		
			<rect x="245.343" y="290.77" transform="matrix(-0.7921 -0.6104 0.6104 -0.7921 250.1052 720.6013)" fill="#61403D" width="4.841" height="53.88"/>
		<polygon fill="#FFC42D" points="330.65,342.951 293.313,391.415 279.631,380.881 274.63,377.021 267.363,371.426 263.486,368.431 
			263.471,368.431 254.046,361.165 249.835,357.926 287.187,309.46 		"/>
		<path fill="#7A554F" d="M220.333,335.192l4.946,3.812c2.107,1.624,5.131,1.23,6.754-0.876l31.46-40.834
			c1.623-2.107,1.231-5.13-0.875-6.754l-4.946-3.813c-2.106-1.624-5.13-1.231-6.753,0.875l-31.462,40.836
			C217.833,330.546,218.225,333.57,220.333,335.192z"/>
		<path fill="#976761" d="M219.453,333.285l31.462-40.838c1.623-2.106,4.647-2.499,6.754-0.874l4.946,3.812
			c0.503,0.388,0.902,0.86,1.206,1.376c1.195-2.061,0.73-4.729-1.208-6.222l-4.946-3.813c-2.106-1.624-5.13-1.231-6.753,0.875
			l-31.463,40.836c-1.235,1.604-1.296,3.733-0.331,5.377C219.227,333.637,219.322,333.453,219.453,333.285z"/>
		<path fill="#7A554F" d="M317.876,410.343l4.945,3.813c2.107,1.623,5.132,1.232,6.755-0.877l31.461-40.835
			c1.625-2.107,1.231-5.13-0.875-6.755l-4.948-3.81c-2.106-1.623-5.129-1.231-6.752,0.877l-31.46,40.831
			C315.378,405.696,315.77,408.723,317.876,410.343z"/>
		<path fill="#6C4844" d="M361.354,367.038c-0.1,0.169-0.189,0.341-0.312,0.502l-31.462,40.837
			c-1.623,2.105-4.647,2.498-6.754,0.874l-4.945-3.81c-0.495-0.383-0.885-0.844-1.186-1.349c-1.221,2.064-0.761,4.751,1.187,6.25
			l4.945,3.813c2.106,1.623,5.131,1.232,6.755-0.877l31.462-40.835C362.285,370.833,362.339,368.686,361.354,367.038z"/>
		<polygon fill="#976761" points="267.363,371.426 126.622,539.985 263.471,368.431 263.486,368.431 		"/>
		<polygon fill="#FFCD61" points="307.269,324.938 270.069,373.508 267.363,371.426 263.486,368.431 263.471,368.431 
			254.046,361.165 249.835,357.926 287.187,309.46 		"/>
		<rect x="272.76" y="412.303" fill="#7A554F" width="129.637" height="21.717"/>
		<rect x="272.76" y="424.204" fill="#6C4844" width="129.637" height="9.815"/>
	</g>
	<g display="inline">
		<ellipse fill="#40829E" cx="434.839" cy="434.248" rx="178.294" ry="3.373"/>
		<g>
			<g>
				<g>
					<path fill="#6C4844" d="M648.867,312.612c-0.635,0-1.227-0.399-1.44-1.035l-35.339-104.727l-35.339,104.727
						c-0.271,0.796-1.133,1.226-1.927,0.955c-0.796-0.269-1.224-1.131-0.955-1.925l36.779-108.997
						c0.209-0.618,0.789-1.035,1.441-1.035c0.651,0,1.232,0.417,1.439,1.035l36.78,108.997c0.271,0.794-0.157,1.656-0.954,1.925
						C649.193,312.587,649.029,312.612,648.867,312.612z"/>
				</g>
				<path fill="#FFC42D" d="M664.59,302.051c-0.705,5.407-2.373,10.533-4.82,15.235c-8.58,16.459-26.709,27.792-47.682,27.792
					c-20.975,0-39.101-11.333-47.683-27.792c-2.446-4.702-4.114-9.828-4.82-15.235H664.59z"/>
				<path fill="#EEAF20" d="M654.358,302.051c-0.494,1.173-1.033,2.327-1.619,3.454c-8.581,16.459-26.71,27.792-47.683,27.792
					c-17.349,0-32.734-7.768-42.396-19.765c0.528,1.278,1.106,2.531,1.744,3.755c8.582,16.459,26.708,27.792,47.683,27.792
					c20.973,0,39.102-11.333,47.682-27.792c2.447-4.702,4.115-9.828,4.82-15.235H654.358z"/>
				<rect x="559.277" y="302.051" fill="#7A554F" width="105.618" height="15.235"/>
				<rect x="559.277" y="311.209" fill="#6C4844" width="105.618" height="6.077"/>
				<rect x="559.277" y="302.051" fill="#976761" width="105.618" height="2.127"/>
			</g>
			<g>
				<g>
					<path fill="#6C4844" d="M436.137,290.317c-0.635,0-1.227-0.399-1.442-1.035l-35.339-104.727l-35.339,104.727
						c-0.27,0.795-1.133,1.225-1.927,0.954c-0.795-0.268-1.223-1.131-0.954-1.925l36.779-108.997
						c0.208-0.617,0.789-1.034,1.44-1.034c0.654,0,1.232,0.417,1.441,1.034l36.78,108.997c0.27,0.794-0.158,1.657-0.954,1.925
						C436.461,290.292,436.298,290.317,436.137,290.317z"/>
				</g>
				<path fill="#FFC42D" d="M451.86,279.755c-0.708,5.407-2.376,10.534-4.823,15.235c-8.58,16.458-26.708,27.792-47.682,27.792
					c-20.972,0-39.101-11.333-47.682-27.792c-2.446-4.702-4.115-9.828-4.82-15.235H451.86z"/>
				<path fill="#EEAF20" d="M441.627,279.755c-0.495,1.174-1.033,2.327-1.62,3.454C431.426,299.667,413.298,311,392.325,311
					c-17.349,0-32.734-7.768-42.396-19.765c0.527,1.278,1.109,2.531,1.746,3.754c8.581,16.458,26.709,27.792,47.682,27.792
					c20.974,0,39.102-11.333,47.682-27.792c2.447-4.702,4.115-9.828,4.823-15.235H441.627z"/>
				<rect x="346.548" y="279.755" fill="#7A554F" width="105.617" height="15.235"/>
				<rect x="346.548" y="288.914" fill="#6C4844" width="105.617" height="6.076"/>
				<rect x="346.548" y="279.755" fill="#976761" width="105.617" height="2.128"/>
			</g>
			<rect x="498.318" y="155.767" fill="#6C4844" width="13.518" height="161.059"/>
			<rect x="498.318" y="155.767" fill="#7A554F" width="6.76" height="161.059"/>
			<rect x="483.622" y="241.587" fill="#FFC42D" width="43.497" height="119.911"/>
			<rect x="515.205" y="241.587" fill="#EEAF20" width="11.914" height="119.911"/>
			<rect x="483.622" y="241.587" fill="#FED16A" width="5.958" height="119.911"/>
			<path fill="#6C4844" d="M556.511,397.944H454.232v-12.884c0-13.014,10.549-23.563,23.563-23.563h55.151
				c13.014,0,23.563,10.549,23.563,23.563V397.944z"/>
			<path fill="#7A554F" d="M532.947,361.498h-55.151c-13.015,0-23.563,10.549-23.563,23.563v12.884h2.2v-9.208
				c0-13.014,10.549-23.563,23.563-23.563h50.164c13.015,0,23.563,10.55,23.563,23.563v9.208h2.788v-12.884
				C556.511,372.047,545.961,361.498,532.947,361.498z"/>
			<rect x="441.596" y="385.794" fill="#EEAF20" width="127.552" height="24.297"/>
			<rect x="441.596" y="385.794" fill="#FFC42D" width="127.552" height="8.447"/>
			<rect x="494.248" y="147.114" fill="#EEAF20" width="21.659" height="9.138"/>
			<path fill="#FED16A" d="M514.043,147.114c2.209-2.262,3.574-5.348,3.574-8.758c0-6.926-5.613-12.54-12.539-12.54
				s-12.541,5.614-12.541,12.54c0,3.41,1.366,6.497,3.574,8.758H514.043z"/>
			<path fill="#FFC42D" d="M511.968,147.114c1.695-1.737,2.747-4.109,2.747-6.729c0-5.322-4.314-9.636-9.637-9.636
				c-5.323,0-9.637,4.314-9.637,9.636c0,2.62,1.051,4.992,2.746,6.729H511.968z"/>
			<g>
				<path fill="#FED16A" d="M605.668,205.881c-1.133,0-2.268-0.046-3.402-0.14l-1.698-0.139
					c-10.086-0.827-19.242-5.53-25.786-13.243c-13.053-15.38-31.313-24.757-51.415-26.403l-34.857-2.856
					c-20.11-1.65-39.647,4.633-55.025,17.685c-7.713,6.544-17.513,9.692-27.598,8.869l-1.699-0.139
					c-9.586-0.786-18.687-4.882-25.628-11.533l-8.293-7.946c-2.424-2.324-2.507-6.173-0.184-8.598
					c2.325-2.426,6.173-2.506,8.599-0.184l8.293,7.946c4.93,4.726,11.395,7.635,18.203,8.193l1.7,0.139
					c6.849,0.558,13.501-1.577,18.736-6.02c17.855-15.154,40.556-22.443,63.888-20.534l34.857,2.855
					c23.34,1.913,44.539,12.799,59.694,30.656c4.443,5.237,10.659,8.429,17.505,8.991l1.699,0.139
					c6.813,0.561,13.662-1.26,19.297-5.121l9.478-6.49c2.768-1.898,6.556-1.19,8.451,1.58c1.898,2.771,1.189,6.556-1.58,8.453
					l-9.475,6.49C622.432,203.324,614.107,205.881,605.668,205.881z"/>
			</g>
			<path fill="#FFC42D" d="M639.449,182.459c-0.179,0.157-0.345,0.324-0.547,0.462l-9.475,6.491
				c-6.996,4.791-15.32,7.347-23.76,7.347c-1.133,0-2.268-0.046-3.402-0.139l-1.698-0.139c-10.086-0.827-19.242-5.53-25.786-13.243
				c-13.053-15.379-31.313-24.757-51.415-26.403l-34.857-2.855c-20.11-1.65-39.647,4.633-55.025,17.684
				c-7.713,6.545-17.513,9.693-27.598,8.87l-1.699-0.139c-9.586-0.787-18.687-4.882-25.628-11.533l-8.09-7.752
				c-0.128,0.112-0.267,0.204-0.386,0.329c-2.324,2.425-2.241,6.274,0.184,8.598l8.293,7.946
				c6.941,6.651,16.042,10.747,25.628,11.533l1.699,0.139c10.085,0.823,19.885-2.324,27.598-8.869
				c15.378-13.052,34.915-19.335,55.025-17.685l34.857,2.856c20.103,1.646,38.362,11.023,51.415,26.403
				c6.544,7.713,15.7,12.416,25.786,13.243l1.698,0.139c1.135,0.093,2.27,0.14,3.402,0.14c8.439,0,16.764-2.557,23.76-7.348
				l9.475-6.49c2.77-1.897,3.479-5.683,1.58-8.453C640.186,183.156,639.828,182.791,639.449,182.459z"/>
			<rect x="418.264" y="409.723" fill="#FFC42D" width="174.216" height="24.297"/>
			<rect x="418.264" y="422.615" fill="#EEAF20" width="174.216" height="11.404"/>
		</g>
	</g>
</g>
<g id="kesehatan">
	<rect x="-0.716" y="-5.039" fill="#3B97D3" width="803.938" height="709.45"/>
	<g>
		<g>
			<ellipse fill="#C6C3C3" cx="392.621" cy="477.348" rx="13.93" ry="15.743"/>
			<rect x="340.414" y="167.897" fill="#C6C3C3" width="106.123" height="17.185"/>
			<path fill="#DA4327" d="M392.621,495.029c-10.319,0-18.713-8.396-18.713-18.715s8.395-18.711,18.713-18.711
				s18.714,8.393,18.714,18.711S402.939,495.029,392.621,495.029z M392.621,465.064c-6.204,0-11.25,5.049-11.25,11.25
				c0,6.206,5.046,11.252,11.25,11.252c6.205,0,11.25-5.046,11.25-11.252C403.871,470.113,398.825,465.064,392.621,465.064z"/>
			<g>
				<g>
					<g>
						<path fill="#FFFFFF" d="M471.283,155.84H313.957c-13.111,0-23.837,10.821-23.837,24.042v294.979
							c0,13.235,10.726,24.041,23.837,24.031h157.327c13.127,0,23.838-10.815,23.838-24.042V179.882
							C495.121,166.651,484.39,155.84,471.283,155.84z M350.518,169.252h84.204c3.094,0,5.602,2.529,5.602,5.649
							s-2.508,5.647-5.602,5.647h-84.204c-3.092,0-5.601-2.527-5.601-5.647S347.426,169.252,350.518,169.252z M392.621,490.441
							c-7.694,0-13.93-6.289-13.93-14.049c0-7.762,6.236-14.051,13.93-14.051c7.692,0,13.93,6.289,13.93,14.051
							C406.551,484.152,400.313,490.441,392.621,490.441z M478.54,454.418H306.703V193.963H478.54V454.418z"/>
					</g>
				</g>
			</g>
		</g>
		<g>
			<polygon fill="#C33E2F" points="306.702,194.458 306.702,453.911 478.445,194.458 			"/>
			<polygon fill="#EE4640" points="306.702,453.911 306.702,457.592 478.539,457.592 478.539,194.458 478.445,194.458 			"/>
		</g>
		<g>
			<path fill="#EFD2A8" d="M522.201,508.418c-8.113,0-14.644,6.432-15.183,14.397c-0.088-0.017-0.152-0.044-0.208-0.063v-14.335
				c0-8.465-6.914-15.393-15.396-15.393c-8.442,0-15.391,6.928-15.391,15.393v-15.393c0-8.465-6.913-15.394-15.392-15.394
				c-8.447,0-15.394,6.929-15.394,15.394v-61.571c0-8.462-6.909-15.393-15.39-15.393c-8.448,0-15.393,6.931-15.393,15.393v9.832
				v82.522v11.125c0,1.879-1.712,3.545-3.522,4.085c-1.801,0.547-3.964-0.147-5.016-1.716
				c-11.33-14.771-10.613-29.367-26.937-29.367c-3.792,0-7.309,2-9.232,5.264c-1.892,3.267-1.955,7.301-0.12,10.609l48.224,103.792
				c1.354,2.441,3.938,3.957,6.732,3.957c13.472,0,60.969,0,89.918,0c12.751,0,23.089-10.328,23.089-23.09
				c0-41.246,0-84.659,0-84.659C537.592,515.349,530.681,508.418,522.201,508.418z"/>
		</g>
		<g>
			<rect x="339.751" y="307.348" fill="#FFFFFF" width="105.739" height="40.037"/>
			<rect x="372.602" y="274.497" fill="#FFFFFF" width="40.037" height="105.738"/>
		</g>
		<g>
			<path fill="#DA4327" d="M259.011,217.186c-8.379,9.979-20.94,16.324-34.988,16.324c-25.226,0-45.675-20.449-45.675-45.672
				c0-25.228,20.449-45.675,45.675-45.675c25.225,0,45.674,20.448,45.674,45.675c0,5.459-0.962,10.695-2.72,15.548l27.894,27.246
				L259.011,217.186z"/>
			<g>
				<polygon fill="#FFFFFF" points="215.257,202.015 228.588,171.714 231.307,171.401 235.657,173.751 235.97,176.469 
					222.756,205.465 				"/>
				<g>
					<g>
						
							<rect x="221.921" y="193.982" transform="matrix(0.9146 0.4043 -0.4043 0.9146 97.7528 -73.998)" fill="#3C454F" width="4.347" height="0.972"/>
						
							<rect x="219.868" y="198.628" transform="matrix(0.9147 0.4041 -0.4041 0.9147 99.4035 -72.7475)" fill="#3C454F" width="4.347" height="0.972"/>
						
							<rect x="221.976" y="196.533" transform="matrix(0.9147 0.4041 -0.4041 0.9147 98.6824 -73.5472)" fill="#3C454F" width="3.218" height="0.972"/>
						
							<rect x="219.922" y="201.178" transform="matrix(0.9146 0.4043 -0.4043 0.9146 100.4399 -72.3452)" fill="#3C454F" width="3.218" height="0.974"/>
						<path fill="#00A4A1" d="M232.432,173.025c0,0-2.657-1.56-3.711,0.823l-7.629,17.26l5.742,2.539l7.8-17.646
							C234.634,176,235.38,174.311,232.432,173.025z"/>
					</g>
				</g>
				<g>
					<path fill="none" d="M228.44,173.263l-12.531,28.35l0.867,0.383l0.031,0.014l5.093,2.252l0.031,0.013l0.87,0.383l12.616-28.543
						c0,0,0.428-2.196-2.758-3.606C232.659,172.509,229.523,170.815,228.44,173.263z"/>
					<path fill="#3C454F" d="M234.986,172.315c-0.009-0.006-0.019-0.013-0.028-0.02c0,0,0,0,0,0
						C234.968,172.302,234.977,172.309,234.986,172.315z"/>
					<path fill="#3C454F" d="M231.633,170.79c-0.392-0.078-0.695-0.105-0.87-0.114c0.302,0.027,0.594,0.08,0.865,0.144
						C231.629,170.809,231.631,170.801,231.633,170.79z"/>
				</g>
				<g>
					<polygon fill="none" points="235.057,168.955 235.019,168.937 235.019,168.938 					"/>
					<polygon fill="none" points="234.07,168.519 234.03,168.501 234.07,168.519 					"/>
					<path fill="#00A4A1" d="M234.07,168.519l-0.04-0.018c-0.419-0.187-0.994,0.199-1.286,0.858l-0.471,1.066
						c-0.239-0.083-0.507,0.028-0.611,0.264c-0.015,0.033-0.022,0.065-0.029,0.1c0.829,0.166,2.057,0.562,3.325,1.506
						c0.03-0.035,0.054-0.073,0.074-0.116c0.104-0.237,0.006-0.508-0.216-0.63l0.471-1.067c0.291-0.659,0.188-1.343-0.231-1.528
						l-0.039-0.017v-0.001L234.07,168.519L234.07,168.519z"/>
					<polygon fill="#FFFFFF" points="239.837,155.468 234.07,168.519 235.019,168.937 240.078,157.492 					"/>
				</g>
				<g>
					<path fill="none" d="M228.44,173.263l-12.531,28.35l0.867,0.383l0.031,0.014l5.093,2.252l0.031,0.013l0.87,0.383l12.616-28.543
						c0,0,0.428-2.196-2.758-3.606C232.659,172.509,229.523,170.815,228.44,173.263z"/>
					<path fill="#3C454F" d="M234.986,172.315c-0.009-0.006-0.019-0.013-0.028-0.02c0,0,0,0,0,0
						c-1.269-0.944-2.496-1.34-3.325-1.506c-0.002,0.011-0.004,0.02-0.005,0.03c-0.271-0.064-0.563-0.117-0.865-0.144
						c-1.137-0.104-2.396,0.159-3.015,1.56l-12.744,28.831l-0.984-0.434l-0.793,1.792l2.148,0.949l0.04-0.003l6.035,2.69
						l1.674,0.739l0.847,0.375l0.792-1.793l-1.005-0.445l12.744-28.832l0,0C237.274,174.358,236.067,173.067,234.986,172.315z
						 M235.417,176.115l-12.616,28.543l-0.87-0.383l-0.031-0.013l-5.093-2.252l-0.031-0.014l-0.867-0.383l12.531-28.35
						c1.083-2.447,4.219-0.754,4.219-0.754C235.845,173.919,235.417,176.115,235.417,176.115z"/>
				</g>
				<g>
					<polygon fill="#535E6C" points="221.451,206.06 215.416,203.37 215.376,203.373 215.81,203.565 210.321,215.981 
						215.962,218.477 					"/>
					<polygon fill="#3C454F" points="210.321,215.981 207.005,214.517 205.975,216.847 218.224,222.26 219.254,219.931 
						215.962,218.477 					"/>
				</g>
			</g>
		</g>
		<path fill="#CBEAFB" d="M516.063,217.837c-1.681,9.522,0.697,19.694,7.396,27.683c12.026,14.348,33.404,16.231,47.753,4.205
			c14.349-12.025,16.23-33.405,4.206-47.753c-12.027-14.349-33.408-16.231-47.755-4.205c-3.105,2.603-5.625,5.647-7.55,8.96
			l-28.794-2.877L516.063,217.837z"/>
		<path fill="#F7CA17" d="M493.104,147.223c-7.683-10.522-10.84-24.236-7.479-37.878c6.036-24.492,30.782-39.454,55.276-33.419
			c24.491,6.035,39.455,30.782,33.421,55.275c-6.037,24.491-30.785,39.456-55.277,33.42c-5.302-1.307-10.156-3.493-14.447-6.362
			l-33.128,20.566L493.104,147.223z"/>
		<g>
			<path fill="#DB4744" d="M566.151,111.996c0.044-2.373-0.361-4.78-1.331-7.186c-0.352-0.865-0.775-1.746-1.265-2.605
				c-2.646-4.536-5.931-7.165-9.508-8.423c-2.464-1.074-5.188-1.672-8.049-1.672c-0.028,0-0.053,0.001-0.08,0.001
				c-0.033,0-0.063-0.001-0.097-0.001c-6.53,0-12.329,3.107-16.011,7.915c-0.003,0-0.004,0.002-0.004,0.002
				c-0.006,0.007-0.015,0.01-0.022,0.018c0,0-0.13-0.111-0.386-0.304c-3.678-4.627-9.342-7.604-15.703-7.629
				c-2.565,0.013-5.018,0.51-7.278,1.399c-0.285,0.083-0.568,0.174-0.85,0.272c-7.05,3.075-11.997,10.061-12.104,18.214
				c-0.001,0.089-0.002,0.18-0.002,0.268c0,1.621,0.196,3.193,0.554,4.702c0.014,0.053,0.027,0.104,0.038,0.157
				c0.021,0.088,0.045,0.18,0.066,0.271c0.37,1.521,0.904,3.016,1.564,4.476c0.643,1.425,1.403,2.817,2.255,4.168
				c0.082-0.015,0.164-0.025,0.252-0.025h10.355l5.502-11.319c0.282-0.577,0.946-0.951,1.515-0.91
				c0.642,0.023,1.207,0.419,1.447,1.013l11.972,29.688l3.384-8.821c0.241-0.624,0.845-1.036,1.515-1.036h20.87
				c2.691-2.754,5.275-5.854,7.295-9.19c1.55-2.56,2.769-5.258,3.452-8.042c0.018-0.09,0.043-0.182,0.064-0.271
				c0.01-0.052,0.024-0.104,0.037-0.157c0.359-1.509,0.555-3.081,0.555-4.702C566.154,112.175,566.151,112.085,566.151,111.996z
				 M497.925,113.005c-0.616,0.008-1.129-0.306-1.335-0.761c-0.071-0.153-0.104-0.324-0.096-0.503
				c0.418-8.574,7.869-16.028,16.441-16.442c0.713-0.04,1.281,0.605,1.268,1.429c-0.01,0.823-0.482,1.516-1.054,1.549
				c-7.124,0.335-13.337,6.547-13.677,13.673c-0.004,0.102-0.032,0.2-0.075,0.293C499.194,112.678,498.603,112.995,497.925,113.005z
				"/>
			<path fill="#DB4744" d="M530.525,149.491c-0.238,0.622-0.834,1.034-1.499,1.039c-0.005,0-0.009,0-0.014,0
				c-0.66,0-1.255-0.401-1.504-1.017l-12.144-30.121l-4.35,8.948c-0.272,0.558-0.839,0.91-1.459,0.91h-9.374
				c6.975,9.136,17.212,15.898,19.419,17.446c2.141,1.499,4.858,3.209,6.958,4.495c2.02,1.309,3.223,1.972,3.223,1.972
				s0.011-0.006,0.025-0.015c0.016,0.009,0.027,0.015,0.027,0.015s1.203-0.663,3.222-1.972c2.098-1.286,4.816-2.996,6.958-4.495
				c1.435-1.005,6.254-4.209,11.368-8.836l-16.392,0.002L530.525,149.491z"/>
		</g>
		<g>
			<path fill="#FFFFFF" d="M560.438,217.859l1.359,10.374l7.039,2.1c0,0,0.369,5.062,1.48,5.679
				c1.113,0.618,3.335-0.123,3.335-0.123v-4.939l-4.815-4.569l-2.101-7.781L560.438,217.859z"/>
			<rect x="536.441" y="217.362" fill="#FFFFFF" width="15.129" height="12.627"/>
			<g>
				<g>
					<g>
						<g>
							<g>
								<g>
									<path fill="#DB4744" d="M563.818,233.175c-2.672,0-4.839,2.166-4.839,4.837c0,2.671,2.167,4.836,4.839,4.836
										c2.671,0,4.837-2.166,4.837-4.836C568.655,235.341,566.489,233.175,563.818,233.175z M562.373,238.012
										c0-0.091,0.011-0.179,0.026-0.264c0.123-0.671,0.712-1.183,1.419-1.183s1.297,0.512,1.419,1.183
										c0.016,0.085,0.025,0.173,0.025,0.264c0,0.418-0.182,0.797-0.468,1.061c-0.257,0.237-0.601,0.383-0.977,0.383
										c-0.377,0-0.72-0.146-0.977-0.383C562.555,238.81,562.373,238.431,562.373,238.012z"/>
								</g>
							</g>
							<path fill="#DB4744" d="M534.368,233.175c-2.67,0-4.837,2.166-4.837,4.837c0,2.671,2.167,4.836,4.837,4.836
								c2.671,0,4.839-2.166,4.839-4.836C539.207,235.341,537.039,233.175,534.368,233.175z M535.346,239.073
								c-0.259,0.237-0.601,0.383-0.977,0.383c-0.377,0-0.72-0.146-0.977-0.383c-0.287-0.264-0.466-0.643-0.466-1.061
								c0-0.091,0.008-0.179,0.023-0.264c0.124-0.671,0.712-1.183,1.419-1.183c0.709,0,1.295,0.512,1.42,1.183
								c0.015,0.085,0.024,0.173,0.024,0.264C535.813,238.431,535.633,238.81,535.346,239.073z"/>
							<g>
								<g>
									<g>
										<path fill="#DB4744" d="M535.883,216.036v15.798h17.952v-15.798H535.883z M549.604,225.806h-3.498v3.497h-3.498v-3.497
											h-3.499v-3.5h3.499v-3.497h3.498v3.497h3.498V225.806z"/>
									</g>
								</g>
							</g>
						</g>
					</g>
					<g>
						<path fill="#3C454F" d="M573.837,234.676c-0.02-2.207,0.042-4.395-0.04-6.604c-1.195-0.547-2.41-1.094-3.606-1.683
							c-1.193-0.464-1.132-1.924-1.538-2.935c-0.649-2.656-1.986-5.186-1.763-7.981c-2.854-0.042-5.689-0.021-8.524-0.002v-1.243
							h-2.209c0-0.022,0-0.049,0-0.077h-5.348c0,0.027,0,0.055,0,0.077h-22.794v11.965v10.156v0.839h0.99
							c0.044-0.288,0.112-0.569,0.2-0.839c0.705-2.178,2.747-3.757,5.156-3.757c0.666,0,1.303,0.122,1.892,0.342
							c1.81,0.678,3.164,2.293,3.464,4.254h18.648v-0.196c0.748-2.178,2.48-4.225,4.938-4.362c2.795-0.405,5.388,1.742,5.995,4.417
							c1.844,0.02,3.687,0.02,5.531,0.02c0-0.77,0.021-1.561,0.021-2.33C574.505,234.716,574.182,234.695,573.837,234.676z
							 M544.356,231.13c-3.908,0-7.076-3.167-7.076-7.075c0-3.909,3.168-7.076,7.076-7.076c3.909,0,7.076,3.167,7.076,7.076
							C551.433,227.963,548.266,231.13,544.356,231.13z M562.049,226.006c-0.021-2.146-0.062-4.295,0.02-6.442
							c1.438,0,2.896-0.021,4.335,0.04c0.566,2.127,1.257,4.234,1.824,6.382C566.16,226.025,564.115,226.006,562.049,226.006z
							 M573.605,234.837c-1.253,0.044-2.525,0.044-3.778,0.022c-0.02-0.757-0.02-1.49,0-2.245c1.253-0.022,2.506-0.022,3.756,0
							C573.626,233.37,573.626,234.103,573.605,234.837z"/>
						<path fill="#DB4744" d="M556.158,211.274c0-1.48-1.198-2.677-2.675-2.677c-1.479,0-2.678,1.197-2.678,2.677
							c0,0.498,0.003,2.303,0.003,2.877h5.348C556.158,213.569,556.158,211.772,556.158,211.274z"/>
					</g>
				</g>
				<path fill="#3C454F" d="M556.571,214.042c0,0.268-0.217,0.486-0.485,0.486h-5.374c-0.271,0-0.487-0.218-0.487-0.486l0,0
					c0-0.268,0.217-0.486,0.487-0.486h5.374C556.354,213.556,556.571,213.773,556.571,214.042L556.571,214.042z"/>
			</g>
		</g>
		<path fill="#CBEAFB" d="M251.725,300.891c-3.761-10.042-11.766-18.416-22.667-22.272c-19.573-6.924-41.055,3.327-47.979,22.902
			c-6.927,19.574,3.327,41.054,22.9,47.98c19.574,6.925,41.056-3.329,47.981-22.903c1.499-4.237,2.191-8.564,2.158-12.814
			l29.125-13.482L251.725,300.891z"/>
		<g>
			<g>
				<path fill="#3C454F" d="M212.079,302.055h4.746c0.394,0,0.712-0.318,0.712-0.711s-0.319-0.709-0.712-0.709h-4.746
					c-0.394,0-0.712,0.316-0.712,0.709S211.685,302.055,212.079,302.055z"/>
				<path fill="#3C454F" d="M212.079,297.785h4.746c0.394,0,0.712-0.319,0.712-0.712s-0.319-0.71-0.712-0.71h-4.746
					c-0.394,0-0.712,0.317-0.712,0.71S211.685,297.785,212.079,297.785z"/>
			</g>
			<g>
				<path fill="#DB4744" d="M215.205,304.399c-2.689-1.052-6.482-0.446-7.969-0.142v10.256c0,0,1.161,5.652,9.932,5.652
					c8.77,0,11.376-5.262,11.376-5.262v-10.642c-1.258-0.277-4.255-0.874-6.602-0.874
					C218.894,303.389,215.205,304.399,215.205,304.399z M216.824,314.873h-4.746c-0.394,0-0.712-0.319-0.712-0.714
					c0-0.393,0.319-0.71,0.712-0.71h4.746c0.394,0,0.712,0.317,0.712,0.71C217.537,314.553,217.218,314.873,216.824,314.873z
					 M216.824,310.957h-4.746c-0.394,0-0.712-0.319-0.712-0.713c0-0.392,0.319-0.71,0.712-0.71h4.746
					c0.394,0,0.712,0.318,0.712,0.71C217.537,310.638,217.218,310.957,216.824,310.957z M216.824,307.041h-4.746
					c-0.394,0-0.712-0.32-0.712-0.713c0-0.394,0.319-0.712,0.712-0.712h4.746c0.394,0,0.712,0.318,0.712,0.712
					C217.537,306.72,217.218,307.041,216.824,307.041z"/>
				<path fill="#3C454F" d="M228.501,287.487h-21.521c-1.048,0-1.897,0.85-1.897,1.9v0.566v8.071v5.378v10.754
					c0,4.441,3.631,8.075,8.073,8.075h1.43c0.028,0.776,0.947,1.425,2.207,1.649v0.333v4.262h-0.044
					c-0.737,0-1.346,0.606-1.346,1.345v4.668c0,0.74,0.609,1.346,1.346,1.346h0.044v8.5h1.9v-8.5h0.043
					c0.741,0,1.348-0.605,1.348-1.346v-4.668c0-0.739-0.607-1.345-1.348-1.345h-0.043v-4.262v-0.333
					c1.256-0.225,2.179-0.873,2.207-1.649h1.426c4.442,0,8.074-3.634,8.074-8.075v-10.754v-5.378v-8.071v-0.566
					C230.399,288.336,229.549,287.487,228.501,287.487z M228.544,300.637v1.858v1.063v0.704v10.642c0,0-2.606,5.262-11.376,5.262
					c-8.771,0-9.932-5.652-9.932-5.652v-10.256v-0.7v-2.49v-0.431v-8.075h8.076h5.158h8.074V300.637z"/>
			</g>
		</g>
		<path fill="#CBEAFB" d="M353.148,127.778c-9.379,0.406-18.866-3.177-25.704-10.64c-12.28-13.4-11.373-34.218,2.026-46.496
			c13.4-12.28,34.217-11.372,46.497,2.027c12.279,13.4,11.373,34.217-2.027,46.498c-2.901,2.658-6.15,4.695-9.584,6.125
			l-0.894,28.08L353.148,127.778z"/>
		<g>
			<g>
				<g>
					<g>
						<polygon fill="#FFFFFF" points="349.488,109.014 355.662,109.014 355.662,102.835 361.841,102.835 361.842,102.835 
							361.842,95.115 355.665,95.115 355.665,88.939 349.488,88.939 349.488,95.115 343.311,95.115 343.311,102.835 
							349.488,102.835 						"/>
					</g>
				</g>
			</g>
			<g>
				<polygon fill="none" points="355.665,88.939 349.488,88.939 349.488,95.115 343.311,95.115 343.311,102.835 349.488,102.835 
					349.488,109.014 355.662,109.014 355.662,102.835 361.841,102.835 361.842,102.835 361.842,95.115 355.665,95.115 				"/>
			</g>
			<g>
				<polygon fill="none" points="355.665,88.939 349.488,88.939 349.488,95.115 343.311,95.115 343.311,102.835 349.488,102.835 
					349.488,109.014 355.662,109.014 355.662,102.835 361.841,102.835 361.842,102.835 361.842,95.115 355.665,95.115 				"/>
				<path fill="#DB4744" d="M369.91,82.761h-6.526h-3.089h-15.44v-0.012h-3.091v0.012h-6.522c-3.179,0-5.769,2.196-5.769,5.367
					v21.295c0,3.17,2.59,5.766,5.769,5.766h34.669c3.171,0,5.763-2.595,5.763-5.766V88.127
					C375.673,84.957,373.082,82.761,369.91,82.761z M361.842,102.835L361.842,102.835h-6.18v6.178h-6.174v-6.178h-6.177v-7.72h6.177
					v-6.176h6.177v6.176h6.177V102.835z"/>
				<path fill="#DB4744" d="M344.854,80.519c0-1.416,1.262-2.677,2.677-2.677h10.09c1.409,0,2.674,1.261,2.674,2.677v2.242h3.089
					v-2.242c0-3.174-2.593-5.767-5.763-5.767h-10.09c-3.168,0-5.768,2.592-5.768,5.767v2.23h3.091V80.519z"/>
			</g>
		</g>
		<path fill="#DA4327" d="M523.406,437.861c4.972-9.947,14.138-17.713,25.8-20.505c20.939-5.014,41.979,7.896,46.992,28.836
			c5.015,20.939-7.896,41.979-28.838,46.991c-20.939,5.016-41.979-7.896-46.992-28.836c-1.085-4.533-1.328-9.068-0.832-13.448
			l-28.571-17.074L523.406,437.861z"/>
		<g>
			<g>
				<path fill="#E8E6E2" d="M579.966,463.842c-0.085-10.52-7.494-17.39-17.382-19.561v-16.588h1.446
					c1.173,0,2.127-0.953,2.127-2.125c0-1.177-0.954-2.126-2.127-2.126h-6.205v40.399H579.966z"/>
				<path fill="#FFF8F6" d="M557.825,423.442h-6.205c-1.173,0-2.125,0.949-2.125,2.126c0,1.172,0.952,2.125,2.125,2.125h1.448
					v16.588c-9.891,2.171-17.298,9.041-17.382,19.561h22.139V423.442z"/>
				<path fill="#0BB1A3" d="M535.687,463.842c0,0.065-0.015,0.12-0.015,0.178c0,12.235,9.703,20.072,21.94,20.072
					c0.069,0,0.143-0.006,0.213-0.006v-20.244H535.687z"/>
				<path fill="#039C8B" d="M579.98,464.02c0-0.058-0.015-0.112-0.015-0.178h-22.141v20.244
					C569.964,483.994,579.98,476.183,579.98,464.02z"/>
			</g>
		</g>
		<path fill="#F7CA17" d="M259.064,435.855c-4.321-11.538-13.517-21.156-26.041-25.587c-22.487-7.956-47.166,3.824-55.121,26.31
			c-7.957,22.487,3.824,47.168,26.31,55.125c22.487,7.954,47.167-3.824,55.123-26.313c1.722-4.868,2.516-9.838,2.478-14.72
			l33.46-15.489L259.064,435.855z"/>
		<path fill="#F7CA17" d="M536.478,324.127c2.322-12.099,9.771-23.128,21.372-29.599c20.831-11.62,47.14-4.155,58.759,16.675
			c11.621,20.831,4.154,47.14-16.678,58.761c-20.83,11.618-47.137,4.153-58.759-16.677c-2.514-4.51-4.133-9.279-4.915-14.095
			l-35.587-9.65L536.478,324.127z"/>
		<g>
			<rect x="207.358" y="428.078" fill="#2F363B" width="17.939" height="5.57"/>
			<path fill="#444C55" d="M235.177,443.93c0-7.189-5.069-13.019-11.323-13.019H208.8c-6.254,0-11.323,5.829-11.323,13.019v29.173
				c0,0.398,0.023,0.793,0.057,1.184c-0.008,0.064-0.018,0.13-0.018,0.2c0,0.223,0.041,0.435,0.113,0.629
				c0.007,0.048,0.011,0.098,0.017,0.145h0.052c0.238,0.49,0.686,0.822,1.208,0.822h34.844c0.521,0,0.97-0.332,1.208-0.822h0.053
				c0.006-0.049,0.009-0.097,0.017-0.146c0.071-0.192,0.112-0.404,0.112-0.627c0-0.068-0.011-0.132-0.019-0.196
				c0.036-0.393,0.057-0.785,0.057-1.188V443.93z"/>
			<path fill="#E9F6F4" d="M232.282,458.245c0,4.093-2.887,7.412-6.448,7.412h-19.012c-3.563,0-6.448-3.319-6.448-7.412v-5.026
				c0-4.093,2.885-7.411,6.448-7.411h19.012c3.562,0,6.448,3.318,6.448,7.411V458.245z"/>
			<rect x="204.978" y="448.985" fill="#FDC76C" width="22.7" height="2.998"/>
			<rect x="204.978" y="454.474" fill="#FDC76C" width="22.7" height="3.002"/>
			<rect x="207.438" y="459.967" fill="#FDC76C" width="17.778" height="3"/>
			<g>
				<rect x="219.972" y="420.691" fill="#F29127" width="0.899" height="7.391"/>
				<rect x="217.917" y="420.691" fill="#F29127" width="0.897" height="7.391"/>
				<rect x="205.579" y="420.691" fill="#F29127" width="0.9" height="7.391"/>
				<rect x="207.636" y="420.691" fill="#F29127" width="0.898" height="7.391"/>
				<rect x="215.86" y="420.691" fill="#F29127" width="0.899" height="7.391"/>
				<rect x="213.804" y="420.691" fill="#F29127" width="0.899" height="7.391"/>
				<rect x="222.029" y="420.691" fill="#F29127" width="0.898" height="7.391"/>
				<rect x="209.692" y="420.691" fill="#F29127" width="0.898" height="7.391"/>
				<rect x="224.084" y="420.691" fill="#F29127" width="0.899" height="7.391"/>
				<rect x="226.14" y="420.691" fill="#F29127" width="0.899" height="7.391"/>
				<rect x="211.747" y="420.691" fill="#F29127" width="0.9" height="7.391"/>
				<rect x="228.196" y="420.691" fill="#F29127" width="0.791" height="7.391"/>
				<rect x="203.668" y="420.691" fill="#F29127" width="0.754" height="7.391"/>
				<line fill="#C83391" x1="204.422" y1="420.691" x2="205.579" y2="420.691"/>
				<rect x="204.422" y="420.691" fill="#E0AE65" width="1.156" height="7.391"/>
				<line fill="#C83391" x1="206.479" y1="420.691" x2="207.636" y2="420.691"/>
				<rect x="206.479" y="420.691" fill="#E0AE65" width="1.157" height="7.391"/>
				<line fill="#C83391" x1="208.534" y1="420.691" x2="209.692" y2="420.691"/>
				<rect x="208.534" y="420.691" fill="#E0AE65" width="1.158" height="7.391"/>
				<line fill="#C83391" x1="210.59" y1="420.691" x2="211.747" y2="420.691"/>
				<rect x="210.59" y="420.691" fill="#E0AE65" width="1.157" height="7.391"/>
				<line fill="#C83391" x1="212.647" y1="420.691" x2="213.804" y2="420.691"/>
				<rect x="212.647" y="420.691" fill="#E0AE65" width="1.157" height="7.391"/>
				<line fill="#C83391" x1="214.704" y1="420.691" x2="215.86" y2="420.691"/>
				<rect x="214.704" y="420.691" fill="#E0AE65" width="1.156" height="7.391"/>
				<line fill="#C83391" x1="216.759" y1="420.691" x2="217.917" y2="420.691"/>
				<rect x="216.759" y="420.691" fill="#E0AE65" width="1.159" height="7.391"/>
				<line fill="#C83391" x1="218.815" y1="420.691" x2="219.972" y2="420.691"/>
				<rect x="218.815" y="420.691" fill="#E0AE65" width="1.157" height="7.391"/>
				<line fill="#C83391" x1="220.872" y1="420.691" x2="222.029" y2="420.691"/>
				<rect x="220.872" y="420.691" fill="#E0AE65" width="1.157" height="7.391"/>
				<line fill="#C83391" x1="222.927" y1="420.691" x2="224.084" y2="420.691"/>
				<rect x="222.927" y="420.691" fill="#E0AE65" width="1.157" height="7.391"/>
				<line fill="#C83391" x1="224.983" y1="420.691" x2="226.14" y2="420.691"/>
				<rect x="224.983" y="420.691" fill="#E0AE65" width="1.157" height="7.391"/>
				<line fill="#C83391" x1="227.039" y1="420.691" x2="228.196" y2="420.691"/>
				<rect x="227.039" y="420.691" fill="#E0AE65" width="1.157" height="7.391"/>
			</g>
		</g>
		<g>
			<g>
				<path fill="#FFFFFF" d="M233.042,466.515c-2.092,1.396-2.78,4.104-1.698,6.298l8.166-5.437
					C237.9,465.531,235.134,465.123,233.042,466.515z"/>
				<path fill="#FFFFFF" d="M238.529,474.753c2.092-1.394,2.78-4.102,1.698-6.298l-8.166,5.438
					C233.671,475.734,236.436,476.146,238.529,474.753z"/>
			</g>
		</g>
		<g>
			<rect x="550.694" y="321.835" fill="#082E3C" width="5.277" height="31.268"/>
			<rect x="605.611" y="332.902" fill="#082E3C" width="5.277" height="20.202"/>
			<rect x="555.07" y="336.896" fill="#082E3C" width="52.759" height="8.877"/>
			<circle fill="#F7F8F9" cx="565.299" cy="325.378" r="4.182"/>
			<g>
				<line fill="#F7F8F9" x1="584.796" y1="334.063" x2="603.197" y2="334.063"/>
				<path fill="#F7F8F9" d="M603.197,335.822l-18.787,0.3c-0.972,0-1.371-1.087-1.371-2.059c0-0.969-1.461-3.86,1.371-3.86
					l18.787,2.103c0.969,0,1.757,0.789,1.757,1.757C604.954,335.035,604.166,335.822,603.197,335.822z"/>
			</g>
			<path fill="#DB4744" d="M577.765,310.799h-3.935c-0.192,0-0.347,0.154-0.347,0.346v0.103v1.476v0.984v1.965
				c0,0.813,0.665,1.478,1.477,1.478h0.261c0.006,0.142,0.174,0.259,0.403,0.3v0.061v0.778h-0.008c-0.135,0-0.244,0.112-0.244,0.247
				v0.854c0,0.135,0.109,0.246,0.244,0.246h0.008v8.042h0.347v-8.042h0.009c0.137,0,0.247-0.111,0.247-0.246v-0.854
				c0-0.134-0.11-0.247-0.247-0.247h-0.009v-0.778v-0.061c0.231-0.042,0.398-0.159,0.404-0.3h0.262c0.812,0,1.476-0.665,1.476-1.478
				v-1.965v-0.984v-1.476v-0.103C578.112,310.954,577.957,310.799,577.765,310.799z"/>
			<path fill="#082E3C" d="M576.641,309.276c0,0.244-0.197,0.441-0.441,0.441h-7.157c-0.243,0-0.441-0.197-0.441-0.441l0,0
				c0-0.244,0.198-0.441,0.441-0.441h7.157C576.443,308.835,576.641,309.032,576.641,309.276L576.641,309.276z"/>
			<rect x="571.346" y="308.148" fill="#082E3C" width="1.178" height="33.136"/>
			<path fill="#DB4744" d="M572.203,334.223c-0.222,1.225-1.551,2.01-2.973,1.754l-8.785-1.58c-1.421-0.257-2.396-1.455-2.175-2.68
				l0,0c0.221-1.224,1.55-2.009,2.97-1.754l8.787,1.581C571.449,331.8,572.422,332.998,572.203,334.223L572.203,334.223z"/>
			<path fill="#F7F8F9" d="M583.64,336.937c-0.071,0-0.146-0.003-0.223-0.008c-7.362-0.46-12.901-5.624-13.134-5.844
				c-1.409-1.335-1.471-3.56-0.138-4.969c1.331-1.406,3.55-1.472,4.959-0.149c0.076,0.072,3.997,3.647,8.753,3.944
				c1.937,0.123,3.409,1.791,3.287,3.73C587.029,335.504,585.48,336.937,583.64,336.937z"/>
		</g>
		<path fill="#CBEAFB" d="M315.519,538.38c-10.509-2.141-21.853,0.198-30.906,7.392c-16.257,12.915-18.966,36.563-6.052,52.82
			c12.914,16.256,36.563,18.967,52.82,6.049c16.256-12.911,18.967-36.559,6.052-52.818c-2.795-3.516-6.097-6.401-9.715-8.628
			l4.029-31.841L315.519,538.38z"/>
		<g>
			<g>
				<path fill="#DB4744" d="M296.658,563.785L296.658,563.785c3.398-3.086,7.591-3.208,7.591-3.208
					c4.425-0.631,7.791,0.883,10.066,3.222l-0.003-0.014c0,0,0.114,0.103,0.301,0.299l4.967-3.833c0,0-1.234-11.55-14.022-12.241
					c-12.791,0.519-13.999,12.261-13.999,12.261l4.852,3.747c0.073-0.066,0.147-0.141,0.222-0.21
					C296.647,563.795,296.658,563.785,296.658,563.785z M301.201,553.082h3.042v-3.042h2.649v3.042h3.045v2.649h-3.045v3.044h-2.649
					v-3.044h-3.042V553.082z"/>
				<g>
					<g>
						<path fill="#30393A" d="M309.314,587.416l0.354-0.743l-0.025-0.108l-0.298-1.27c0.437-0.176,0.859-0.384,1.265-0.616
							c0.265-0.032,0.635-0.099,1.066-0.229c1.664,2.116,6.259,1.912,6.259,1.912c-1.413-2.791-0.157-3.092,0.374-10.313
							c0.446-6.079-2.693-9.926-3.696-10.989c-0.187-0.2-0.301-0.3-0.301-0.3l0.003,0.016c-2.275-2.341-5.641-3.854-10.066-3.22
							c0,0-4.193,0.118-7.591,3.204l0,0c0,0-0.011,0.01-0.026,0.023c-0.075,0.07-0.148,0.141-0.222,0.213
							c-1.774,1.708-3.293,4.259-3.817,8.085c-0.121,1.016-0.092,2.011,0.068,2.968l0,0c0.531,7.221,1.786,7.521,0.374,10.313
							c0,0,4.921,0.225,6.422-2.143c0.47,0.327,0.97,0.611,1.491,0.857l-0.379,1.61l-0.071,0.306l0.122,0.259l0.123,0.224
							l3.981,7.813l0.284,0.575l0.003-0.008l0.29-0.567L309.314,587.416z M299.039,583.349c-0.798-0.763-1.598-1.916-2.069-3.685
							c-1.921-6.344,4.532-4.943,7.279-12.459c0,0,3.069,4.882,10.019,7.516c0.281,1.828,0.144,5.23-1.543,7.724
							c-1.837,1.954-4.437,3.18-7.324,3.18c-1.507,0-2.933-0.343-4.218-0.939c0,0-0.088-0.048-0.135-0.062
							C300.329,584.276,299.651,583.85,299.039,583.349z M301.042,586.928l0.385-1.639c1.226,0.503,2.567,0.783,3.974,0.783
							c1.212,0,2.376-0.21,3.458-0.593l0.266,1.13l0.007,0.029l-4.119,8.084L301.042,586.928z"/>
						<circle fill="#404F52" cx="301.163" cy="575.301" r="0.899"/>
						<circle fill="#404F52" cx="309.395" cy="575.247" r="0.845"/>
						<path fill="#30393A" d="M300.189,586.978c-4.261,1.067-7.873,3.366-10.22,6.399c-1.835,2.371-2.899,5.188-2.899,8.21h11.393
							h5.788v-6.102h-4.767L300.189,586.978z"/>
					</g>
				</g>
			</g>
			<g>
				<path fill="#30393A" d="M329.434,592.078c-0.028-0.575-0.213-1.128-0.538-1.608c-0.618-0.909-1.644-1.422-2.742-1.368
					c-1.724,0.082-3.06,1.557-2.977,3.28l0.175,3.654l0.044,0.932l0.247-0.106l0.386-0.166c1.225-0.522,3.074-0.969,4.923-0.128
					l0.712,0.322L329.434,592.078z M324.288,595.576l-0.157-3.24c-0.057-1.199,0.872-2.223,2.07-2.281
					c0.762-0.035,1.476,0.318,1.907,0.951c0.224,0.331,0.353,0.72,0.373,1.118l0.158,3.302
					C326.981,594.913,325.395,595.201,324.288,595.576z"/>
				<path fill="#E3232A" d="M322.689,596.555c-0.018,0.013-0.038,0.021-0.056,0.03l-0.045,0.024l0.126,0.014L322.689,596.555z"/>
			</g>
			<g>
				<path fill="#30393A" d="M322.769,596.861l-0.29-0.825l-1.094-3.107l-0.117-0.332c-0.191-0.545-0.529-1.023-0.975-1.386
					c-0.482-0.393-1.051-0.627-1.643-0.689c-0.457-0.052-0.925,0.002-1.376,0.16c-1.629,0.575-2.488,2.369-1.914,3.995l1.524,4.331
					l0.528-0.44c1.024-0.853,2.666-1.81,4.68-1.534l0.649,0.089l0.046-0.024c0.016-0.008,0.038-0.018,0.056-0.026L322.769,596.861z
					 M317.338,597.422l-1.078-3.06c-0.399-1.134,0.198-2.381,1.331-2.779c0.72-0.252,1.504-0.116,2.099,0.366
					c0.309,0.251,0.542,0.587,0.677,0.966l1.098,3.115C319.729,596.011,318.292,596.745,317.338,597.422z"/>
				<path fill="#DB4744" d="M329.577,597.138l-0.062-0.042c-0.392-0.248-0.788-0.427-1.181-0.551c0,0-0.551-0.094-0.525-0.14
					c-1.54-0.311-2.967,0.147-3.801,0.528c-0.106,0.048-0.205,0.096-0.29,0.138l0.024,0.068l-0.126-0.018l-0.036,0.018l0.011,0.227
					l0.062,1.277l0.074,1.526l0.075,1.558c0.006,0.126,0.021,0.25,0.042,0.374c0.073,0.413,0.232,0.812,0.471,1.162
					c0.044,0.063,0.091,0.126,0.14,0.186c0.042,0.055,0.086,0.106,0.132,0.158c0.109,0.114,0.225,0.225,0.349,0.324
					c0.559,0.445,1.263,0.675,2.002,0.642c1.649-0.078,2.927-1.484,2.847-3.136L329.577,597.138z M328.207,603.67
					c0,0,1.514-1.46,0.088-5.848c0,0-0.095-0.471-0.771-0.871l1.42,0.431C328.944,597.382,330.33,602.406,328.207,603.67z"/>
				<path fill="#DB4744" d="M323.893,603.79c-0.063-0.059-0.35-0.389-0.369-0.411c-0.029-0.037-0.056-0.075-0.083-0.115
					c-0.029-0.045-0.058-0.087-0.084-0.133c-0.192-0.314-0.324-0.667-0.388-1.029c-0.021-0.124-0.036-0.248-0.042-0.374
					l-0.075-1.558l-0.136-2.804c-0.954-0.337-2.055-0.124-2.055-0.124v0.002c-1.662,0.246-2.92,1.27-3.486,1.814l-0.066,0.063
					l1.049,2.979l0.477,1.348c0.183,0.527,0.505,0.983,0.932,1.33c0.816,0.665,1.896,0.853,2.888,0.502
					c0.709-0.25,1.263-0.74,1.607-1.35C324.002,603.886,323.947,603.838,323.893,603.79z"/>
			</g>
			<path fill="#30393A" d="M316.16,599.012c-0.049-0.1-0.094-0.208-0.138-0.313c-0.002-0.004-0.004-0.01-0.007-0.014
				c-0.038-0.066-0.072-0.134-0.102-0.202c-0.004-0.008-0.008-0.018-0.013-0.028l-0.043,0.04l-1.524-4.331
				c-0.574-1.63,0.286-3.422,1.914-3.995c0.452-0.158,0.921-0.21,1.377-0.164c-2.193-1.558-4.834-2.697-7.741-3.27l0.726,8.75h-4.87
				v6.102h11.393l-0.813-2.307C316.259,599.192,316.204,599.108,316.16,599.012z"/>
		</g>
	</g>
</g>
</svg>
