<?xml version="1.0" encoding="utf-8"?>
<!-- Generator: Adobe Illustrator 16.0.0, SVG Export Plug-In . SVG Version: 6.00 Build 0)  -->
<!DOCTYPE svg PUBLIC "-//W3C//DTD SVG 1.1//EN" "http://www.w3.org/Graphics/SVG/1.1/DTD/svg11.dtd">
<svg version="1.1" xmlns="http://www.w3.org/2000/svg" xmlns:xlink="http://www.w3.org/1999/xlink" x="0px" y="0px" width="800px"
	 height="700px" viewBox="0 0 800 700" enable-background="new 0 0 800 700" xml:space="preserve">
<g id="Layer_2">
</g>
<g id="Layer_1">
	<rect x="-1.379" y="-4.039" fill="#3B97D3" width="803.938" height="709.45"/>
	<g>
		<g>
			<g>
				<g>
					<polygon fill="#C4C4C4" points="578.951,311.577 578.951,304.331 458.934,203.34 458.927,203.322 458.927,203.322 
						458.568,203.024 458.549,203.037 458.512,203.024 457.36,204.053 300.667,304.331 300.667,307.936 286.506,320.374 
						286.506,500.983 286.506,513.39 300.667,513.39 420.728,513.39 578.951,513.39 593.118,513.39 593.118,500.983 
						593.118,324.357 					"/>
					<polygon fill="#CC2527" points="458.927,179.333 286.506,179.333 450.181,340.021 622.615,340.021 					"/>
					<polygon fill="#FFFFFF" points="406.525,311.577 406.525,304.331 286.506,203.34 286.506,203.322 286.493,203.322 
						286.141,203.024 286.115,203.037 286.098,203.024 284.914,204.053 166.438,304.331 166.438,307.936 152.278,320.374 
						152.278,481.799 152.278,513.39 166.438,513.39 286.506,513.39 406.525,513.39 420.697,513.39 420.697,500.983 
						420.697,324.357 					"/>
					<rect x="350.139" y="382.543" fill="#CC2527" width="31.998" height="100.427"/>
					<rect x="318.982" y="278.205" fill="#CC2527" width="23.153" height="72.588"/>
					<rect x="420.697" y="493.011" fill="#CC2527" width="172.421" height="20.379"/>
					<rect x="152.278" y="493.011" fill="#EF4645" width="268.419" height="20.379"/>
					<polygon fill="#EF4645" points="286.506,179.333 122.813,340.021 152.297,340.021 286.506,213.555 420.697,340.021 
						450.181,340.021 					"/>
					<g>
						<polygon fill="#C4C4C4" points="286.537,382.543 229.154,382.543 229.154,482.97 286.537,482.97 343.921,482.97 
							343.921,382.543 						"/>
						<polygon fill="#1D2E4F" points="286.531,390.628 237.232,390.628 237.232,474.886 286.531,474.886 335.843,474.886 
							335.843,390.628 						"/>
						<g>
							<polygon fill="#2E4476" points="335.843,474.886 335.843,444.782 305.733,474.886 							"/>
							<polygon fill="#2E4476" points="237.232,390.628 237.232,431.212 277.822,390.628 							"/>
							<polygon fill="#2E4476" points="335.843,394.207 255.171,474.886 283.552,474.886 335.843,422.597 							"/>
						</g>
						<rect x="197.149" y="382.543" fill="#EF4645" width="32.005" height="100.427"/>
						<rect x="343.821" y="382.543" fill="#EF4645" width="31.992" height="100.427"/>
						<rect x="200.085" y="392.171" fill="#CC2527" width="26.226" height="6.23"/>
						<rect x="346.764" y="392.171" fill="#CC2527" width="26.233" height="6.23"/>
						<rect x="200.085" y="410.858" fill="#CC2527" width="26.226" height="6.23"/>
						<rect x="346.764" y="410.858" fill="#CC2527" width="26.233" height="6.23"/>
						<rect x="200.085" y="429.539" fill="#CC2527" width="26.226" height="6.236"/>
						<rect x="346.764" y="429.539" fill="#CC2527" width="26.233" height="6.236"/>
						<rect x="200.085" y="448.228" fill="#CC2527" width="26.226" height="6.238"/>
						<rect x="346.764" y="448.228" fill="#CC2527" width="26.233" height="6.238"/>
						<rect x="200.085" y="466.915" fill="#CC2527" width="26.226" height="6.225"/>
						<rect x="346.764" y="466.915" fill="#CC2527" width="26.233" height="6.225"/>
					</g>
					<g>
						<g>
							<polygon fill="#C4C4C4" points="286.506,278.205 260.336,278.205 260.336,350.793 286.506,350.793 312.659,350.793 
								312.659,278.205 							"/>
							<polygon fill="#1D2E4F" points="286.493,284.044 266.163,284.044 266.163,344.964 286.493,344.964 306.812,344.964 
								306.812,284.044 							"/>
							<g>
								<g>
									<g>
										<polygon fill="#2E4476" points="286.493,284.044 280.38,284.044 266.163,298.234 266.163,311.157 293.295,284.044 
																					"/>
									</g>
									<g>
										<polygon fill="#2E4476" points="306.812,293.881 266.163,334.533 266.163,344.964 286.493,344.964 292.118,344.964 
											306.812,330.234 										"/>
									</g>
								</g>
							</g>
						</g>
						<rect x="237.183" y="278.205" fill="#EF4645" width="23.153" height="72.588"/>
						<rect x="312.659" y="278.205" fill="#EF4645" width="23.146" height="72.588"/>
						<rect x="239.318" y="285.153" fill="#CC2527" width="18.962" height="4.522"/>
						<rect x="314.801" y="285.153" fill="#CC2527" width="18.955" height="4.522"/>
						<rect x="239.318" y="298.663" fill="#CC2527" width="18.962" height="4.508"/>
						<rect x="314.801" y="298.663" fill="#CC2527" width="18.955" height="4.508"/>
						<rect x="239.318" y="312.178" fill="#CC2527" width="18.962" height="4.509"/>
						<rect x="314.801" y="312.178" fill="#CC2527" width="18.955" height="4.509"/>
						<rect x="239.318" y="325.681" fill="#CC2527" width="18.962" height="4.511"/>
						<rect x="314.801" y="325.681" fill="#CC2527" width="18.955" height="4.511"/>
						<rect x="239.318" y="339.191" fill="#CC2527" width="18.962" height="4.503"/>
						<rect x="314.801" y="339.191" fill="#CC2527" width="18.955" height="4.503"/>
					</g>
					<g>
						<rect x="552.082" y="389.735" fill="#CC2527" width="29.304" height="91.934"/>
						<g>
							<g>
								<rect x="479.486" y="389.735" fill="#FFFFFF" width="33.139" height="91.934"/>
								<rect x="512.625" y="389.735" fill="#FFFFFF" width="33.146" height="91.934"/>
							</g>
							<polygon fill="#1D2E4F" points="512.625,397.119 486.89,397.119 486.89,474.273 512.625,474.273 538.373,474.273 
								538.373,397.119 							"/>
							<g>
								<g>
									<g>
										<polygon fill="#2E4476" points="538.373,397.119 529.64,397.119 486.89,439.891 486.89,463.278 538.373,411.794 
																					"/>
									</g>
									<g>
										<polygon fill="#2E4476" points="538.373,429.812 493.912,474.273 512.234,474.273 538.373,448.153 										"/>
									</g>
								</g>
							</g>
						</g>
						<rect x="450.181" y="389.735" fill="#EF4645" width="29.306" height="91.934"/>
						<rect x="545.771" y="389.735" fill="#EF4645" width="29.297" height="91.934"/>
						<rect x="452.875" y="398.538" fill="#CC2527" width="24.022" height="5.709"/>
						<rect x="548.465" y="398.538" fill="#CC2527" width="24.015" height="5.709"/>
						<rect x="452.875" y="415.64" fill="#CC2527" width="24.022" height="5.711"/>
						<rect x="548.465" y="415.64" fill="#CC2527" width="24.015" height="5.711"/>
						<rect x="452.875" y="432.755" fill="#CC2527" width="24.022" height="5.703"/>
						<rect x="548.465" y="432.755" fill="#CC2527" width="24.015" height="5.703"/>
						<rect x="452.875" y="449.861" fill="#CC2527" width="24.022" height="5.706"/>
						<rect x="548.465" y="449.861" fill="#CC2527" width="24.015" height="5.706"/>
						<rect x="452.875" y="466.973" fill="#CC2527" width="24.022" height="5.698"/>
						<rect x="548.465" y="466.973" fill="#CC2527" width="24.015" height="5.698"/>
					</g>
					<polygon fill="#C4C4C4" points="445.015,166.827 427.027,166.827 427.027,203.352 445.015,203.352 463.003,203.352 
						463.003,166.827 					"/>
					<polygon fill="#CC2527" points="445.015,150.058 420.704,150.058 420.704,167.247 445.015,167.247 469.316,167.247 
						469.316,150.058 					"/>
					<polygon fill="#FFFFFF" points="416.763,166.827 398.776,166.827 398.776,203.352 416.763,203.352 434.763,203.352 
						434.763,166.827 					"/>
					<polygon fill="#EF4645" points="416.763,150.058 392.451,150.058 392.451,167.247 416.763,167.247 441.07,167.247 
						441.07,150.058 					"/>
				</g>
			</g>
			<g>
				<g>
					<g>
						<g>
							<path fill="#F49A1F" d="M505.874,176.271c-16.544,46.196,7.463,97.063,53.666,113.614l59.939-167.261
								C573.29,106.074,522.424,130.088,505.874,176.271z"/>
							<path fill="#F49A1F" d="M673.127,236.22c-3.121,8.751-7.488,16.693-12.816,23.723c-7.654,10.115-17.322,18.335-28.195,24.269
								c-16.815,9.192-36.537,12.915-56.242,9.854c-5.469-0.861-10.933-2.235-16.333-4.181l59.939-167.261
								c1.884,0.675,3.753,1.418,5.569,2.211C667.572,143.343,689.016,191.925,673.127,236.22z"/>
						</g>
						<path fill="#FFCB07" d="M603.246,116.813c-46.184-16.55-97.051,7.458-113.603,53.648
							c-16.558,46.184,7.472,97.056,53.655,113.602c46.184,16.569,97.068-7.477,113.605-53.655
							C673.462,184.213,649.441,133.365,603.246,116.813z"/>
						<g>
							<path fill="#F49A1F" d="M503.716,175.516c-13.768,38.416,6.215,80.722,44.638,94.48l49.855-139.114
								C559.799,117.099,517.479,137.101,503.716,175.516z"/>
							<path fill="#F4931F" d="M598.209,130.882l-49.855,139.114c38.41,13.775,80.715-6.2,94.491-44.629
								C656.601,186.958,636.627,144.645,598.209,130.882z"/>
						</g>
						<path fill="#FFCB07" d="M552.118,259.46c-32.538-11.651-49.515-47.633-37.858-80.172
							c11.664-32.55,47.614-49.534,80.166-37.875c32.537,11.681,49.521,47.632,37.865,80.17
							C620.626,254.126,584.67,271.124,552.118,259.46z M593.488,144.044c-31.118-11.15-65.471,5.086-76.608,36.174
							c-11.143,31.106,5.08,65.473,36.179,76.609c31.104,11.15,65.462-5.073,76.61-36.168
							C640.813,189.546,624.584,155.2,593.488,144.044z"/>
						<g>
							<path fill="#FFCB07" d="M554.367,172.704c5.432-14.823,16.324-16.266,27.842-12.494l3.229-8.906l9.879,3.599l-3.258,8.98
								c7.167,3.011,12.254,6.176,16.848,9.645l-4.817,13.224c-6.066-2.818-17.01-7.333-22.119-9.198
								c-5.99-2.26-9.118-2.836-11.194,2.869l-0.929,2.558c-1.628,4.478-0.421,6.942,5.067,8.938l8.318,3.035
								c15.381,5.581,14.018,19.331,10.982,27.656l-1.573,4.33c-6.417,17.599-18.358,17.815-28.642,14.067l-3.099,8.481
								l-9.867-3.593l3.129-8.61c-8.368-3.352-11.075-5.235-17.046-9.781l4.785-13.138c4.036,1.808,13.965,6.219,23.597,9.725
								c4.397,1.598,8.281,1.845,9.902-2.627l1.109-3.011c1.345-3.716,1.01-6.366-4.081-8.226l-8.041-2.911
								c-18.551-6.751-14.443-22.478-12.358-28.177L554.367,172.704z"/>
						</g>
					</g>
					<g opacity="0.3">
						<path fill="#FFCB07" d="M582.197,112.051l-82.864,39.128c-3.891,5.841-7.155,12.233-9.632,19.115l113.365-53.56
							C596.172,114.293,589.173,112.738,582.197,112.051z"/>
						<path fill="#FFCB07" d="M630.513,132.46l-146.108,69.009c0.218,16.483,5.004,32.464,13.622,46.197l159.53-75.365
							C652.396,156.952,643.117,143.078,630.513,132.46z"/>
					</g>
				</g>
			</g>
		</g>
		<g>
			<g>
				<polygon fill="#C4C4C4" points="568.121,481.781 562.873,484.932 468.311,328.976 473.53,325.911 				"/>
				<g>
					<polygon fill="#FFFFFF" points="562.873,484.932 480.555,534.843 385.999,378.883 468.311,328.976 					"/>
					<path fill="#26A687" d="M413.63,385.641l47.898-29.03l73.707,121.571l-47.892,29.037L413.63,385.641L413.63,385.641z
						 M395.159,381.142l87.62,144.521l70.893-42.981L466.06,338.162L395.159,381.142L395.159,381.142z"/>
					<path fill="#26A687" d="M468.205,501.628c13.304-8.063,30.619-3.844,38.676,9.42l-24.102,14.614L468.205,501.628z"/>
					<path fill="#26A687" d="M409.748,405.204c13.304-8.062,17.568-25.38,9.507-38.669l-24.096,14.606L409.748,405.204z"/>
					<path fill="#26A687" d="M539.104,458.652c-13.288,8.056-17.531,25.339-9.485,38.614l24.054-14.586L539.104,458.652z"/>
					<path fill="#26A687" d="M480.646,362.229c-13.29,8.055-30.594,3.801-38.643-9.486l24.056-14.581L480.646,362.229z"/>
					<path fill="#26A687" d="M494.2,463.297c-6.273,3.803-8.292,12.004-4.484,18.297c3.814,6.294,12.024,8.28,18.291,4.479
						c6.281-3.802,8.289-11.991,4.479-18.277C508.669,461.508,500.479,459.494,494.2,463.297z"/>
					<path fill="#26A687" d="M461.528,410.644c-11.739,7.106-15.483,22.385-8.363,34.116c7.109,11.726,22.394,15.489,34.132,8.373
						c11.727-7.113,15.476-22.41,8.359-34.144C488.543,407.265,473.259,403.528,461.528,410.644z"/>
					<path fill="#26A687" d="M444.402,381.164c-6.274,3.801-8.294,12.003-4.484,18.296c3.804,6.268,12.03,8.281,18.296,4.478
						c6.274-3.801,8.27-12.003,4.465-18.284C458.864,379.36,450.677,377.36,444.402,381.164z"/>
					<path fill="#8FD2C7" d="M473.386,444.76c-5.193,3.154-8.837,0.98-11.375-2.953l-3.106,1.892l-2.094-3.455l3.139-1.901
						c-1.401-2.671-2.185-4.843-2.739-6.963l4.67-2.836c1.117,2.332,3.292,6.334,4.37,8.122c1.279,2.113,2.061,3.047,4.088,1.814
						l0.875-0.529c1.563-0.946,1.814-1.994,0.656-3.908l-1.769-2.915c-3.267-5.392,0.461-9.182,3.364-10.944l1.518-0.914
						c6.182-3.742,9.786-0.915,11.971,2.695l3.007-1.821l2.095,3.465l-3.034,1.836c1.716,3.014,2.08,4.22,2.749,7.034l-4.599,2.789
						c-0.76-1.516-2.683-5.247-4.727-8.605c-0.931-1.536-2.038-2.557-3.614-1.602l-1.057,0.643
						c-1.313,0.787-1.843,1.676-0.763,3.464l1.7,2.802c3.949,6.499-1.086,10.217-3.086,11.428L473.386,444.76z"/>
				</g>
			</g>
			<g>
				<polygon fill="#C4C4C4" points="530.85,489.716 527.722,494.977 370.466,402.614 373.595,397.434 				"/>
				<g>
					<polygon fill="#FFFFFF" points="527.722,494.977 478.972,577.985 321.708,485.61 370.466,402.614 					"/>
					<path fill="#26A687" d="M349.244,478.44l28.367-48.289l122.585,72.007l-28.367,48.288L349.244,478.44L349.244,478.44z
						 M330.845,483.25l145.729,85.605l41.987-71.487l-145.727-85.6L330.845,483.25L330.845,483.25z"/>
					<path fill="#26A687" d="M452.333,554.62c7.884-13.417,25.127-17.928,38.508-10.063l-14.268,24.299L452.333,554.62z"/>
					<path fill="#26A687" d="M355.11,497.508c7.874-13.416,3.397-30.688-9.994-38.556l-14.271,24.298L355.11,497.508z"/>
					<path fill="#26A687" d="M494.334,483.131c-7.884,13.408-3.399,30.627,9.983,38.49l14.243-24.253L494.334,483.131z"/>
					<path fill="#26A687" d="M397.094,426.019c-7.863,13.402-25.111,17.868-38.506,9.996l14.246-24.246L397.094,426.019z"/>
					<path fill="#26A687" d="M457.021,508.542c-3.72,6.321-1.607,14.504,4.732,18.232c6.347,3.724,14.516,1.584,18.231-4.742
						c3.717-6.327,1.596-14.483-4.743-18.219C468.893,500.09,460.733,502.21,457.021,508.542z"/>
					<path fill="#26A687" d="M403.256,477.706c-6.942,11.825-2.994,27.049,8.837,34.003c11.833,6.944,27.068,2.996,34.014-8.837
						c6.954-11.826,2.994-27.068-8.846-34.011C425.429,461.904,410.214,465.875,403.256,477.706z"/>
					<path fill="#26A687" d="M374.192,459.892c-3.713,6.32-1.605,14.501,4.737,18.23c6.332,3.724,14.521,1.584,18.231-4.743
						c3.717-6.32,1.583-14.493-4.747-18.212C386.067,451.444,377.914,453.557,374.192,459.892z"/>
					<path fill="#8FD2C7" d="M429.9,502.104c-3.089,5.233-7.314,5.061-11.408,2.803l-1.846,3.14L413.153,506l1.869-3.166
						c-2.499-1.684-4.229-3.221-5.725-4.829l2.77-4.712c2.088,1.522,5.908,4.016,7.705,5.068c2.141,1.252,3.266,1.701,4.457-0.337
						l0.523-0.875c0.934-1.59,0.648-2.623-1.277-3.757l-2.942-1.729c-5.44-3.195-3.948-8.302-2.232-11.224l0.894-1.522
						c3.663-6.228,8.182-5.461,11.818-3.313l1.775-3.026l3.499,2.046l-1.802,3.053c2.94,1.837,3.837,2.736,5.765,4.896l-2.724,4.631
						c-1.393-0.973-4.861-3.34-8.262-5.333c-1.535-0.9-2.994-1.284-3.936,0.312l-0.629,1.066c-0.762,1.312-0.813,2.351,0.982,3.405
						l2.827,1.657c6.559,3.855,3.896,9.514,2.71,11.527L429.9,502.104z"/>
				</g>
			</g>
		</g>
		<g>
			<g>
				<g>
					<g>
						<path fill="#F49A1F" d="M465.702,485.854c-7.154,18.356,1.933,39.04,20.297,46.182l25.884-66.48
							C493.519,458.407,472.843,467.497,465.702,485.854z"/>
						<path fill="#F49A1F" d="M532.188,511.737c-1.35,3.469-3.192,6.61-5.406,9.38c-3.18,3.974-7.156,7.162-11.587,9.435
							c-6.855,3.505-14.805,4.783-22.677,3.338c-2.185-0.398-4.373-1.021-6.519-1.854l25.884-66.48
							c0.754,0.286,1.49,0.604,2.22,0.948C530.968,474.387,539.036,494.128,532.188,511.737z"/>
					</g>
					<path fill="#FFCB07" d="M505.437,463.039c-18.364-7.148-39.033,1.939-46.188,20.306c-7.142,18.349,1.941,39.031,20.299,46.178
						c18.362,7.157,39.04-1.939,46.187-20.297C532.875,490.87,523.793,470.188,505.437,463.039z"/>
					<g>
						<path fill="#F49A1F" d="M464.84,485.523c-5.941,15.255,1.617,32.468,16.884,38.401l21.526-55.288
							C487.987,462.695,470.789,470.253,464.84,485.523z"/>
						<path fill="#F4931F" d="M503.25,468.637l-21.526,55.288c15.272,5.949,32.471-1.61,38.412-16.879
							C526.085,491.784,518.527,474.578,503.25,468.637z"/>
					</g>
					<path fill="#FFCB07" d="M484.343,483.729c2.556-6.561,7.435-7.129,12.534-5.313l1.523-3.93l4.372,1.696l-1.548,3.967
						c3.164,1.459,5.431,2.904,7.431,4.467l-2.291,5.901c-2.679-1.357-7.499-3.504-9.76-4.378c-2.668-1.04-4.04-1.352-5.035,1.206
						l-0.428,1.105c-0.77,1.98-0.267,3.119,2.158,4.053l3.678,1.439c6.816,2.65,6.048,8.771,4.623,12.428l-0.743,1.909
						c-3.041,7.803-8.353,7.75-12.909,5.975l-1.472,3.79l-4.366-1.704l1.478-3.823c-3.697-1.562-4.883-2.422-7.485-4.529
						l2.265-5.804c1.763,0.848,6.169,2.915,10.429,4.569c1.922,0.751,3.668,0.915,4.438-1.083l0.524-1.34
						c0.642-1.642,0.496-2.834-1.755-3.71l-3.534-1.379c-8.213-3.198-6.207-10.162-5.227-12.685L484.343,483.729z"/>
				</g>
				<g opacity="0.3">
					<path fill="#FFCB07" d="M497.036,460.898l-33.686,14.812c-1.623,2.294-3.003,4.824-4.076,7.565l46.083-20.258
						C502.628,461.958,499.832,461.257,497.036,460.898z"/>
					<path fill="#FFCB07" d="M516.202,469.615l-59.392,26.114c-0.092,6.614,1.655,13.085,4.954,18.685l64.856-28.502
						C524.729,479.687,521.149,474.017,516.202,469.615z"/>
				</g>
			</g>
		</g>
		<g>
			<path fill="#203145" d="M650.69,411.923c-0.018-8.561-7.359-15.55-16.343-15.536l-52.939,0.079l-52.973,0.079
				c-8.967,0.013-16.293,7.035-16.281,15.588l0.331,125.321c0.013,8.571,7.367,15.556,16.349,15.542l52.941-0.08l52.964-0.086
				c8.97-0.006,16.309-7.022,16.297-15.588L650.69,411.923z"/>
			<path fill="#2C486C" d="M640.289,411.923c-0.014-8.561-7.359-15.55-16.342-15.536L571,396.466l-52.963,0.079
				c-8.971,0.013-16.305,7.035-16.283,15.588l0.331,125.321c0.012,8.571,7.365,15.556,16.35,15.542l52.944-0.08l52.959-0.086
				c8.971-0.006,16.31-7.022,16.29-15.588L640.289,411.923z"/>
			<g>
				<path fill="#C4C4C4" d="M623.712,465.112h-12.028c-6.438,0-11.646,5.206-11.646,11.644v39.518v10.733v1.305
					c0,6.426,5.208,11.647,11.646,11.647h12.028c6.423,0,11.649-5.222,11.649-11.647v-1.305v-10.733v-39.518
					C635.361,470.318,630.135,465.112,623.712,465.112z"/>
				<path fill="#C4C4C4" d="M547.199,488.775c0,6.438-5.221,11.653-11.647,11.653h-12.03c-6.425,0-11.646-5.215-11.646-11.653
					v-12.02c0-6.438,5.222-11.644,11.646-11.644h12.03c6.427,0,11.647,5.206,11.647,11.644V488.775z"/>
				<path fill="#C4C4C4" d="M547.199,528.312c0,6.426-5.221,11.647-11.647,11.647h-12.03c-6.425,0-11.646-5.222-11.646-11.647
					v-12.038c0-6.418,5.222-11.638,11.646-11.638h12.03c6.427,0,11.647,5.22,11.647,11.638V528.312z"/>
				<path fill="#C4C4C4" d="M591.055,488.775c0,6.438-5.214,11.653-11.64,11.653h-12.037c-6.426,0-11.647-5.215-11.647-11.653
					v-12.02c0-6.438,5.222-11.644,11.647-11.644h12.037c6.426,0,11.64,5.206,11.64,11.644V488.775z"/>
				<path fill="#C4C4C4" d="M591.055,528.312c0,6.426-5.214,11.647-11.64,11.647h-12.037c-6.426,0-11.647-5.222-11.647-11.647
					v-12.038c0-6.418,5.222-11.638,11.647-11.638h12.037c6.426,0,11.64,5.22,11.64,11.638V528.312z"/>
			</g>
			<g>
				<path fill="#FFFFFF" d="M619.225,465.112h-12.031c-6.427,0-11.634,5.206-11.634,11.644v39.518v10.733v1.305
					c0,6.426,5.207,11.647,11.634,11.647h12.031c6.425,0,11.646-5.222,11.646-11.647v-1.305v-10.733v-39.518
					C630.87,470.318,625.649,465.112,619.225,465.112z"/>
				<path fill="#FFFFFF" d="M542.714,488.775c0,6.438-5.214,11.653-11.646,11.653h-12.024c-6.44,0-11.646-5.215-11.646-11.653
					v-12.02c0-6.438,5.205-11.644,11.646-11.644h12.024c6.433,0,11.646,5.206,11.646,11.644V488.775z"/>
				<path fill="#FFFFFF" d="M542.714,528.312c0,6.426-5.214,11.647-11.646,11.647h-12.024c-6.44,0-11.646-5.222-11.646-11.647
					v-12.038c0-6.418,5.205-11.638,11.646-11.638h12.024c6.433,0,11.646,5.22,11.646,11.638V528.312z"/>
				<path fill="#FFFFFF" d="M586.563,488.775c0,6.438-5.206,11.653-11.641,11.653h-12.023c-6.438,0-11.645-5.215-11.645-11.653
					v-12.02c0-6.438,5.207-11.644,11.645-11.644h12.023c6.435,0,11.641,5.206,11.641,11.644V488.775z"/>
				<path fill="#FFFFFF" d="M586.563,528.312c0,6.426-5.206,11.647-11.641,11.647h-12.023c-6.438,0-11.645-5.222-11.645-11.647
					v-12.038c0-6.418,5.207-11.638,11.645-11.638h12.023c6.435,0,11.641,5.22,11.641,11.638V528.312z"/>
			</g>
			<g>
				<path fill="#203145" d="M513.718,479.116h7.625v-7.686h7.307v7.686h7.736v7.3h-7.736v7.685h-7.307v-7.685h-7.625V479.116z"/>
			</g>
			<g>
				<path fill="#203145" d="M514.472,527.708l5.394-5.397l-5.433-5.432l5.16-5.163l5.44,5.435l5.465-5.468l5.16,5.154l-5.473,5.474
					l5.439,5.432l-5.16,5.166l-5.432-5.43l-5.393,5.391L514.472,527.708z"/>
			</g>
			<g>
				<path fill="#203145" d="M557.917,479.116h21.98v7.3h-21.98V479.116z"/>
			</g>
			<g>
				<g>
					<path fill="#EF4645" d="M603.303,494.406h19.801v6.214h-19.801V494.406z M603.303,504.448h19.801v6.208h-19.801V504.448z"/>
				</g>
			</g>
			<g>
				<g>
					<g>
						<path fill="#203145" d="M557.917,518.641h21.98v7.306h-21.98V518.641z"/>
					</g>
				</g>
				<g>
					<g>
						<path fill="#203145" d="M572.301,512.611c0-1.868-1.518-3.386-3.393-3.386c-1.869,0-3.385,1.518-3.385,3.386
							c0,1.883,1.516,3.398,3.385,3.398C570.783,516.01,572.301,514.494,572.301,512.611z"/>
						<path fill="#203145" d="M572.301,531.968c0-1.868-1.518-3.384-3.393-3.384c-1.869,0-3.385,1.516-3.385,3.384
							c0,1.875,1.516,3.393,3.385,3.393C570.783,535.36,572.301,533.843,572.301,531.968z"/>
					</g>
				</g>
			</g>
			<path fill="#54C1AA" d="M632.963,433.38c0,6.52-5.287,11.805-11.807,11.805h-99.927c-6.525,0-11.818-5.285-11.818-11.805v-14.362
				c0-6.52,5.293-11.808,11.818-11.808h99.927c6.52,0,11.807,5.288,11.807,11.808V433.38z"/>
			<g>
				<path fill="#FFFFFF" d="M572.981,434.724h8.588c2.013,0,1.913-1.072,1.913-1.724v-1.005c0-1.074-0.323-1.724-1.558-1.724h-1.431
					c-1.039,0-1.431,0.458-1.431,1.463h-6.04l0.713-15.116h15.046v5.657h-8.91l-0.126,3.313c0.842-0.517,1.689-0.615,2.112-0.647
					c0.851-0.068,2.049-0.033,2.465,0c3.776,0.322,5.468,2.927,5.468,6.371v3.055c0,4.453-3.414,6.174-6.6,6.174
					c-4.035,0-5.848-0.033-10.21-0.776V434.724z"/>
				<path fill="#FFFFFF" d="M597.626,416.584c3.253-0.522,7.771,0.034,10.8,0.683v4.811h-7.122c-2.96,0-2.96,1.762-2.96,4.133
					c1.204-0.622,2.245-0.688,4.974-0.688c4.749,0,5.883,2.604,5.883,6.149v2.952c0,4.226-2.438,5.818-6.208,5.818h-4.484
					c-3.97,0-6.475-2.271-6.475-12.507C592.033,419.321,594.739,417.041,597.626,416.584z M600.947,434.783h0.547
					c1.074,0,1.4-0.291,1.4-1.491v-0.647c0-1.399-0.033-1.789-1.232-1.789h-3.318C598.344,434.3,598.832,434.783,600.947,434.783z"
					/>
				<path fill="#FFFFFF" d="M610.803,416.618h15.634l1.532,2.537l-7.447,21.26h-6.696l6.433-18.14h-9.455V416.618z"/>
			</g>
			<path fill="#26A687" d="M631.2,412.816c-2.134-2.047-4.968-3.353-8.188-3.353h-99.928c-6.512,0-11.819,5.306-11.819,11.818
				v14.362c0,2.285,0.657,4.427,1.724,6.188c-2.186-2.146-3.583-5.154-3.583-8.466v-14.364c0-6.511,5.306-11.817,11.812-11.817
				h99.939C625.386,407.185,629.107,409.423,631.2,412.816z"/>
			<g opacity="0.5">
				<path fill="#96D7DD" d="M537.804,407.21l-28.182,28.184c0.504,2.914,2.075,5.418,4.293,7.193l35.37-35.377H537.804z"/>
				<polygon fill="#96D7DD" points="562.82,407.21 524.847,445.185 571.498,445.185 609.472,407.21 				"/>
			</g>
		</g>
	</g>
</g>
</svg>
